<svg id="svg" version="1.1" xmlns="http://www.w3.org/2000/svg" xmlns:xlink="http://www.w3.org/1999/xlink" width="400" height="75.22603978300181" viewBox="0, 0, 400,75.22603978300181"><g id="svgg"><path id="path0" d="M390.684 0.764 C 386.510 1.886,384.151 6.384,385.657 10.347 C 387.638 15.563,394.474 16.833,398.058 12.652 C 402.704 7.231,397.548 -1.082,390.684 0.764 M393.924 2.061 C 400.318 3.764,399.099 13.765,392.500 13.746 C 387.336 13.731,384.907 6.678,388.882 3.241 C 390.294 2.021,392.145 1.587,393.924 2.061 M389.705 7.776 L 389.750 11.917 390.417 11.917 L 391.083 11.917 391.167 10.167 C 391.285 7.678,391.867 7.570,393.100 9.808 C 394.151 11.713,394.423 12.000,395.175 12.000 C 395.975 12.000,395.974 12.036,395.223 10.867 C 394.888 10.344,394.408 9.570,394.157 9.146 L 393.700 8.376 394.338 8.185 C 395.294 7.899,395.833 7.163,395.833 6.146 C 395.833 4.219,395.140 3.781,391.955 3.696 L 389.661 3.635 389.705 7.776 M393.963 5.093 C 395.149 5.924,394.152 7.250,392.341 7.250 L 391.250 7.250 391.201 6.042 L 391.152 4.833 392.372 4.833 C 393.207 4.833,393.710 4.915,393.963 5.093 M135.833 15.907 C 135.833 21.699,135.768 26.354,135.687 26.404 C 135.607 26.454,135.250 25.998,134.895 25.391 C 131.657 19.851,123.471 19.243,117.926 24.130 C 112.653 28.777,110.090 36.617,110.096 48.083 C 110.104 63.245,114.740 72.497,123.201 74.236 C 125.259 74.659,148.062 74.633,147.936 74.208 C 147.306 72.094,147.170 65.104,147.168 34.792 L 147.167 5.500 141.500 5.500 L 135.833 5.500 135.833 15.907 M65.342 21.014 C 61.894 21.346,57.220 22.871,55.164 24.335 L 54.667 24.689 54.667 28.525 C 54.667 30.635,54.723 32.335,54.792 32.304 C 54.860 32.273,55.442 31.977,56.083 31.647 C 60.247 29.505,66.415 28.902,69.434 30.342 C 71.900 31.518,73.475 34.720,73.494 38.596 L 73.500 39.776 70.958 39.979 C 57.985 41.015,50.172 48.132,50.168 58.917 C 50.165 66.521,53.791 72.175,59.862 74.032 C 61.600 74.564,85.924 74.736,85.774 74.215 C 85.252 72.413,85.005 65.078,85.002 51.309 C 85.000 35.800,84.929 34.788,83.556 30.583 C 81.249 23.519,74.756 20.108,65.342 21.014 M20.173 21.337 C 8.044 22.598,0.091 33.528,0.106 48.917 C 0.120 64.065,6.565 73.490,17.953 75.016 C 21.212 75.452,25.739 74.933,28.305 73.830 L 29.167 73.459 29.167 69.063 C 29.167 66.645,29.142 64.667,29.112 64.667 C 29.083 64.667,28.539 64.847,27.904 65.068 C 23.007 66.770,17.971 65.613,15.259 62.162 C 9.773 55.179,10.295 39.561,16.216 33.530 C 19.243 30.446,22.905 29.883,28.792 31.596 L 29.167 31.706 29.167 27.202 L 29.167 22.698 27.919 22.178 C 25.898 21.337,23.098 21.033,20.173 21.337 M188.851 21.360 C 180.339 22.577,173.857 31.173,172.409 43.167 C 170.791 56.558,174.602 67.923,182.226 72.443 C 187.660 75.665,197.048 75.959,204.092 73.128 L 205.083 72.730 205.128 68.615 C 205.152 66.352,205.148 64.500,205.118 64.500 C 205.087 64.500,204.407 64.721,203.607 64.992 C 199.594 66.348,193.602 66.655,190.637 65.657 C 186.032 64.105,183.176 58.804,183.167 51.792 L 183.167 51.333 195.492 51.333 L 207.818 51.333 207.951 50.708 C 208.024 50.365,208.083 48.058,208.083 45.583 C 208.083 28.638,200.934 19.632,188.851 21.360 M313.924 21.344 C 301.920 22.585,293.957 33.499,293.930 48.750 C 293.908 60.755,297.988 69.411,305.417 73.120 C 310.203 75.511,317.510 75.821,322.139 73.830 L 323.000 73.459 323.000 69.063 C 323.000 66.645,322.974 64.667,322.943 64.667 C 322.911 64.667,322.443 64.819,321.901 65.006 C 315.058 67.364,309.400 64.816,306.874 58.240 C 304.189 51.252,304.955 40.925,308.572 35.333 C 311.540 30.745,315.805 29.611,322.625 31.596 L 323.000 31.706 323.000 27.202 L 323.000 22.698 321.792 22.200 C 319.685 21.332,316.934 21.033,313.924 21.344 M360.255 21.352 C 349.332 22.943,342.332 36.214,343.650 52.833 C 344.665 65.640,350.351 73.083,360.475 74.860 C 364.539 75.573,372.894 74.523,376.023 72.905 L 376.500 72.658 376.500 68.561 C 376.500 64.725,376.481 64.472,376.208 64.583 C 373.155 65.821,367.718 66.571,364.618 66.183 C 359.313 65.517,356.291 62.444,355.099 56.500 C 354.800 55.011,354.467 51.688,354.596 51.480 C 354.647 51.398,360.038 51.333,366.917 51.333 C 376.494 51.333,379.175 51.288,379.275 51.126 C 379.500 50.762,379.553 42.947,379.346 40.703 C 378.093 27.121,370.876 19.805,360.255 21.352 M232.913 23.958 C 232.984 25.219,233.088 37.087,233.145 50.333 L 233.250 74.417 238.958 74.461 L 244.667 74.504 244.667 52.669 L 244.667 30.833 248.744 30.833 C 254.889 30.833,256.129 31.578,257.350 36.000 L 257.741 37.417 257.829 55.917 L 257.917 74.417 263.633 74.461 L 269.349 74.504 269.284 55.461 C 269.227 38.865,269.184 36.220,268.949 34.887 C 267.640 27.454,264.549 23.508,258.915 22.079 L 257.291 21.667 245.038 21.667 L 232.786 21.667 232.913 23.958 M192.935 30.216 C 195.663 31.601,197.496 36.148,197.499 41.542 L 197.500 43.167 190.392 43.167 L 183.285 43.167 183.378 41.542 C 183.855 33.259,188.375 27.902,192.935 30.216 M363.601 29.913 C 366.572 30.795,368.667 35.139,368.948 40.996 L 369.051 43.167 361.859 43.167 L 354.667 43.167 354.667 42.438 C 354.667 41.328,355.314 37.748,355.786 36.250 C 357.356 31.265,360.250 28.918,363.601 29.913 M131.250 30.895 C 133.521 31.964,135.249 35.028,135.655 38.702 C 135.766 39.712,135.833 45.147,135.833 53.160 L 135.833 66.000 131.943 66.000 L 128.053 66.000 127.029 65.488 C 122.431 63.191,120.077 51.333,121.993 40.124 C 123.225 32.917,127.176 28.978,131.250 30.895 M73.833 56.758 L 73.833 66.016 69.625 65.966 C 64.916 65.911,64.855 65.898,63.427 64.641 C 60.895 62.412,60.309 56.262,62.283 52.635 C 63.929 49.611,68.023 47.568,72.542 47.515 L 73.833 47.500 73.833 56.758 " stroke="none" fill="#04040c" fill-rule="evenodd"></path><path id="path1" d="M0.022 22.708 C 0.036 36.816,0.100 44.887,0.191 44.018 C 1.245 33.928,6.707 25.786,14.583 22.563 C 18.820 20.830,25.042 20.689,28.458 22.249 L 29.333 22.648 29.333 27.241 C 29.333 29.767,29.275 31.833,29.205 31.833 C 29.134 31.833,28.327 31.638,27.413 31.400 C 17.471 28.810,11.745 35.124,11.754 48.667 C 11.763 62.386,17.991 68.147,28.958 64.583 L 29.333 64.461 29.333 68.976 L 29.333 73.491 28.814 73.760 C 27.944 74.210,26.987 74.512,25.417 74.832 C 23.954 75.131,25.963 75.138,107.167 75.132 C 156.005 75.127,189.944 75.064,189.272 74.978 C 178.560 73.602,172.414 64.802,172.050 50.321 C 171.608 32.678,179.400 21.076,191.667 21.113 C 201.368 21.143,207.264 28.615,208.180 42.044 C 208.350 44.537,208.288 48.931,208.058 50.624 L 207.962 51.331 195.690 51.374 L 183.417 51.417 183.367 52.468 C 183.133 57.402,185.793 63.132,189.089 64.795 C 192.627 66.579,198.552 66.564,203.908 64.756 C 205.434 64.241,205.346 63.993,205.295 68.672 L 205.250 72.738 203.917 73.297 C 202.227 74.006,199.908 74.600,197.667 74.899 C 196.145 75.102,203.453 75.132,253.750 75.131 C 302.391 75.131,311.390 75.095,310.369 74.909 C 301.359 73.263,295.415 65.771,294.082 54.380 C 292.167 38.006,298.870 24.927,310.780 21.799 C 314.470 20.830,319.633 21.031,322.292 22.248 L 323.167 22.648 323.167 27.241 C 323.167 29.767,323.109 31.833,323.038 31.833 C 322.967 31.833,322.161 31.638,321.246 31.400 C 317.864 30.519,314.885 30.651,312.548 31.784 C 303.246 36.295,302.986 59.967,312.187 64.571 C 314.886 65.921,319.034 65.994,322.212 64.747 C 322.557 64.611,322.914 64.500,323.003 64.500 C 323.106 64.500,323.167 66.172,323.167 68.997 L 323.167 73.493 322.537 73.815 C 321.749 74.217,320.287 74.645,318.758 74.923 C 317.777 75.101,321.219 75.136,339.667 75.135 C 359.132 75.135,361.572 75.107,360.250 74.903 C 354.050 73.945,349.351 70.429,346.440 64.569 C 342.175 55.986,342.296 41.736,346.715 32.295 C 353.142 18.564,370.080 16.974,376.486 29.500 C 378.970 34.356,380.329 43.478,379.554 50.083 L 379.417 51.250 367.083 51.333 L 354.750 51.417 354.798 52.750 C 355.055 59.826,357.661 64.112,362.667 65.689 C 365.579 66.607,372.330 65.977,376.375 64.411 C 376.648 64.305,376.667 64.568,376.667 68.543 L 376.667 72.789 375.067 73.402 C 372.933 74.218,370.766 74.709,367.750 75.059 C 367.475 75.091,374.619 75.128,383.625 75.142 L 400.000 75.167 399.989 42.042 C 399.979 12.565,399.951 9.018,399.733 9.833 C 398.283 15.250,391.189 17.096,387.265 13.076 C 383.740 9.466,384.732 3.379,389.203 1.178 C 393.519 -0.948,398.920 1.595,399.818 6.174 C 399.922 6.705,399.969 5.929,399.982 3.458 L 400.000 0.000 242.583 0.000 L 85.167 0.000 85.167 4.165 L 85.167 8.330 69.917 8.373 L 54.667 8.417 54.667 4.208 L 54.667 0.000 27.333 0.000 L 0.000 0.000 0.022 22.708 M390.540 2.344 C 384.884 4.582,386.456 13.594,392.500 13.580 C 399.679 13.563,399.922 2.354,392.750 2.053 C 391.697 2.009,391.233 2.070,390.540 2.344 M394.767 3.875 C 396.548 4.822,396.298 7.774,394.393 8.278 L 393.869 8.417 394.934 10.159 C 396.211 12.247,396.201 12.167,395.183 12.167 L 394.366 12.167 393.284 10.375 C 392.408 8.926,392.119 8.573,391.773 8.531 L 391.345 8.479 391.297 10.281 L 391.250 12.083 390.458 12.134 L 389.667 12.185 389.667 7.824 L 389.667 3.462 391.958 3.531 C 393.663 3.582,394.382 3.670,394.767 3.875 M391.333 6.001 L 391.333 7.215 392.514 7.116 C 393.922 6.998,394.167 6.831,394.167 5.985 C 394.167 5.189,393.848 4.990,392.387 4.872 L 391.333 4.788 391.333 6.001 M147.335 35.375 C 147.336 53.315,147.403 66.390,147.501 67.833 C 147.689 70.602,147.965 73.538,148.100 74.208 L 148.193 74.667 136.361 74.667 C 121.076 74.667,120.362 74.527,116.688 70.831 C 108.520 62.615,107.362 39.103,114.574 27.924 C 120.027 19.471,130.558 18.082,134.972 25.234 L 135.583 26.225 135.626 15.779 L 135.669 5.333 141.501 5.333 L 147.333 5.333 147.335 35.375 M72.179 21.098 C 77.370 21.974,80.804 24.385,82.840 28.583 C 84.994 33.025,85.160 34.764,85.165 52.917 C 85.168 65.595,85.289 69.743,85.745 72.833 C 85.874 73.704,85.921 74.476,85.849 74.549 C 85.558 74.845,61.164 74.596,60.083 74.286 C 53.792 72.482,50.104 66.836,50.101 59.000 C 50.096 47.953,57.738 40.954,71.064 39.801 L 73.378 39.600 73.268 37.903 C 72.836 31.220,69.466 28.807,62.110 29.916 C 60.244 30.197,57.512 31.063,55.836 31.904 C 55.210 32.218,54.653 32.431,54.599 32.377 C 54.455 32.232,54.483 24.785,54.628 24.557 C 55.277 23.537,61.276 21.398,64.750 20.948 C 66.190 20.761,70.726 20.853,72.179 21.098 M257.504 21.677 C 262.620 22.317,266.297 25.516,268.088 30.883 C 269.444 34.945,269.383 33.857,269.453 55.458 L 269.516 74.667 263.684 74.667 L 257.852 74.667 257.786 56.458 C 257.729 40.818,257.683 38.074,257.460 37.000 C 256.868 34.142,255.785 32.328,254.208 31.554 L 253.250 31.083 249.042 31.031 L 244.835 30.979 244.792 52.781 L 244.750 74.583 238.917 74.583 L 233.083 74.583 232.966 50.583 C 232.902 37.383,232.787 25.496,232.711 24.167 C 232.636 22.837,232.599 21.694,232.630 21.625 C 232.720 21.426,255.884 21.474,257.504 21.677 M189.110 30.076 C 186.275 31.087,184.051 35.691,183.411 41.875 L 183.295 43.000 190.421 43.000 L 197.547 43.000 197.432 41.125 C 196.935 33.057,193.508 28.508,189.110 30.076 M360.202 30.247 C 357.427 31.539,354.833 37.305,354.833 42.183 L 354.833 43.000 361.859 43.000 L 368.885 43.000 368.779 41.042 C 368.336 32.813,364.651 28.175,360.202 30.247 M128.167 30.738 C 126.397 31.231,125.561 31.885,124.368 33.713 C 120.754 39.250,120.501 55.051,123.918 61.837 C 125.685 65.345,127.136 66.035,132.583 65.959 L 135.583 65.917 135.583 52.083 L 135.583 38.250 135.197 36.833 C 133.964 32.316,131.178 29.901,128.167 30.738 M70.917 47.748 C 64.321 48.852,61.277 52.031,61.261 57.833 C 61.244 64.160,63.385 66.080,70.333 65.969 L 73.583 65.917 73.583 56.750 L 73.583 47.583 72.917 47.554 C 72.550 47.538,71.650 47.626,70.917 47.748 M0.028 63.875 L 0.000 75.167 8.875 75.152 C 16.620 75.138,17.600 75.109,16.575 74.923 C 7.296 73.238,1.146 65.140,0.114 53.250 C 0.082 52.883,0.043 57.665,0.028 63.875 " stroke="none" fill="#fbfbfb" fill-rule="evenodd"></path><path id="path2" d="M54.667 4.167 L 54.667 8.333 69.833 8.333 L 85.000 8.333 85.000 4.167 L 85.000 0.000 69.833 0.000 L 54.667 0.000 54.667 4.167 " stroke="none" fill="#e21c35" fill-rule="evenodd"></path><path id="path3" d="M85.072 4.167 C 85.072 6.504,85.096 7.460,85.125 6.292 C 85.153 5.123,85.153 3.210,85.125 2.042 C 85.096 0.873,85.072 1.829,85.072 4.167 M395.181 0.895 C 395.352 1.049,396.333 1.500,396.333 1.425 C 396.333 1.329,395.409 0.833,395.230 0.833 C 395.165 0.833,395.142 0.861,395.181 0.895 M395.833 3.052 C 395.833 3.081,396.077 3.325,396.375 3.594 L 396.917 4.083 396.427 3.542 C 395.971 3.037,395.833 2.923,395.833 3.052 M390.625 3.623 C 391.198 3.656,392.135 3.656,392.708 3.623 C 393.281 3.591,392.813 3.564,391.667 3.564 C 390.521 3.564,390.052 3.591,390.625 3.623 M147.248 34.083 C 147.248 49.942,147.268 56.404,147.292 48.445 C 147.316 40.486,147.316 27.511,147.292 19.612 C 147.268 11.713,147.248 18.225,147.248 34.083 M395.875 6.083 C 395.877 6.450,395.911 6.580,395.951 6.373 C 395.991 6.166,395.990 5.866,395.948 5.706 C 395.906 5.547,395.874 5.717,395.875 6.083 M391.333 8.398 C 391.333 8.433,391.554 8.495,391.825 8.534 C 392.095 8.574,392.278 8.545,392.231 8.470 C 392.149 8.336,391.333 8.271,391.333 8.398 M396.240 12.208 L 395.750 12.750 396.292 12.260 C 396.797 11.804,396.910 11.667,396.781 11.667 C 396.752 11.667,396.509 11.910,396.240 12.208 M394.276 12.042 C 394.318 12.110,394.724 12.167,395.177 12.167 C 395.629 12.167,396.000 12.110,396.000 12.042 C 396.000 11.973,395.595 11.917,395.099 11.917 C 394.604 11.917,394.233 11.973,394.276 12.042 M390.044 12.120 C 390.297 12.158,390.672 12.157,390.877 12.117 C 391.082 12.078,390.875 12.046,390.417 12.048 C 389.958 12.049,389.791 12.081,390.044 12.120 M397.667 13.083 C 397.262 13.496,396.968 13.833,397.014 13.833 C 397.060 13.833,397.428 13.496,397.833 13.083 C 398.238 12.671,398.532 12.333,398.486 12.333 C 398.440 12.333,398.072 12.671,397.667 13.083 M392.125 15.284 C 392.331 15.324,392.669 15.324,392.875 15.284 C 393.081 15.245,392.912 15.212,392.500 15.212 C 392.087 15.212,391.919 15.245,392.125 15.284 M125.542 20.789 C 125.977 20.824,126.690 20.824,127.125 20.789 C 127.560 20.755,127.204 20.727,126.333 20.727 C 125.462 20.727,125.106 20.755,125.542 20.789 M190.955 21.120 C 191.250 21.157,191.775 21.158,192.121 21.122 C 192.467 21.086,192.225 21.055,191.583 21.055 C 190.942 21.054,190.659 21.083,190.955 21.120 M362.288 21.120 C 362.584 21.157,363.109 21.158,363.455 21.122 C 363.800 21.086,363.558 21.055,362.917 21.055 C 362.275 21.054,361.992 21.083,362.288 21.120 M232.611 21.611 C 232.550 21.672,232.501 21.803,232.503 21.903 C 232.504 22.011,232.558 22.000,232.637 21.876 C 232.739 21.715,235.421 21.659,244.759 21.625 L 256.750 21.581 244.736 21.541 C 238.128 21.518,232.672 21.550,232.611 21.611 M29.166 27.216 L 29.250 31.917 29.294 27.344 C 29.319 24.830,29.281 22.715,29.211 22.644 C 29.141 22.574,29.121 24.631,29.166 27.216 M323.000 27.216 L 323.083 31.917 323.128 27.344 C 323.152 24.830,323.115 22.715,323.044 22.644 C 322.974 22.574,322.954 24.631,323.000 27.216 M117.158 24.625 L 116.583 25.250 117.208 24.676 C 117.790 24.141,117.910 24.000,117.783 24.000 C 117.755 24.000,117.474 24.281,117.158 24.625 M80.083 24.833 C 80.441 25.200,80.772 25.500,80.818 25.500 C 80.863 25.500,80.608 25.200,80.250 24.833 C 79.892 24.467,79.562 24.167,79.516 24.167 C 79.470 24.167,79.725 24.467,80.083 24.833 M232.720 25.167 C 232.720 25.762,232.750 26.006,232.787 25.708 C 232.824 25.410,232.824 24.923,232.787 24.625 C 232.750 24.327,232.720 24.571,232.720 25.167 M373.250 25.167 C 373.701 25.625,374.108 26.000,374.154 26.000 C 374.200 26.000,373.868 25.625,373.417 25.167 C 372.965 24.708,372.558 24.333,372.513 24.333 C 372.467 24.333,372.799 24.708,373.250 25.167 M54.534 28.448 C 54.515 30.574,54.556 32.349,54.625 32.391 C 54.694 32.434,54.731 31.295,54.707 29.859 C 54.628 25.042,54.568 24.555,54.534 28.448 M179.406 26.208 L 178.917 26.750 179.458 26.260 C 179.963 25.804,180.077 25.667,179.948 25.667 C 179.919 25.667,179.675 25.910,179.406 26.208 M301.409 27.208 L 300.750 27.917 301.458 27.258 C 301.848 26.895,302.167 26.577,302.167 26.550 C 302.167 26.423,302.022 26.550,301.409 27.208 M7.491 27.292 L 6.917 27.917 7.542 27.342 C 8.123 26.808,8.243 26.667,8.116 26.667 C 8.088 26.667,7.807 26.948,7.491 27.292 M232.888 28.417 C 232.889 29.058,232.919 29.300,232.955 28.955 C 232.991 28.609,232.990 28.084,232.954 27.788 C 232.917 27.492,232.887 27.775,232.888 28.417 M113.583 29.500 C 113.441 29.775,113.362 30.000,113.408 30.000 C 113.454 30.000,113.608 29.775,113.750 29.500 C 113.892 29.225,113.971 29.000,113.925 29.000 C 113.879 29.000,113.726 29.225,113.583 29.500 M65.208 29.615 C 65.369 29.657,65.631 29.657,65.792 29.615 C 65.952 29.573,65.821 29.539,65.500 29.539 C 65.179 29.539,65.048 29.573,65.208 29.615 M190.460 29.785 C 190.668 29.824,190.968 29.823,191.127 29.781 C 191.286 29.739,191.117 29.707,190.750 29.709 C 190.383 29.711,190.253 29.745,190.460 29.785 M361.875 29.782 C 362.035 29.823,362.298 29.823,362.458 29.782 C 362.619 29.740,362.488 29.705,362.167 29.705 C 361.846 29.705,361.715 29.740,361.875 29.782 M22.292 30.789 C 22.681 30.824,23.319 30.824,23.708 30.789 C 24.098 30.754,23.779 30.725,23.000 30.725 C 22.221 30.725,21.902 30.754,22.292 30.789 M316.125 30.789 C 316.515 30.824,317.152 30.824,317.542 30.789 C 317.931 30.754,317.612 30.725,316.833 30.725 C 316.054 30.725,315.735 30.754,316.125 30.789 M365.500 31.250 C 365.811 31.571,366.103 31.833,366.149 31.833 C 366.195 31.833,365.978 31.571,365.667 31.250 C 365.356 30.929,365.064 30.667,365.018 30.667 C 364.972 30.667,365.189 30.929,365.500 31.250 M244.744 31.042 C 244.700 31.156,244.684 41.000,244.708 52.917 L 244.751 74.583 244.792 52.795 L 244.833 31.006 248.625 30.958 L 252.417 30.910 248.620 30.872 C 245.707 30.842,244.804 30.882,244.744 31.042 M132.833 32.250 C 133.144 32.571,133.436 32.833,133.482 32.833 C 133.528 32.833,133.311 32.571,133.000 32.250 C 132.689 31.929,132.397 31.667,132.351 31.667 C 132.305 31.667,132.522 31.929,132.833 32.250 M233.040 53.282 C 233.018 64.941,233.056 74.515,233.125 74.558 C 233.238 74.628,233.237 60.007,233.123 39.750 C 233.099 35.533,233.062 41.623,233.040 53.282 M310.161 33.458 L 309.250 34.417 310.208 33.506 C 311.099 32.659,311.243 32.500,311.119 32.500 C 311.093 32.500,310.662 32.931,310.161 33.458 M16.244 33.542 L 15.417 34.417 16.292 33.590 C 17.105 32.821,17.243 32.667,17.119 32.667 C 17.092 32.667,16.699 33.060,16.244 33.542 M269.293 56.333 C 269.269 66.417,269.306 74.667,269.375 74.667 C 269.444 74.667,269.500 66.417,269.500 56.333 C 269.500 46.250,269.463 38.000,269.418 38.000 C 269.373 38.000,269.317 46.250,269.293 56.333 M85.079 51.583 C 85.079 58.458,85.100 61.295,85.125 57.887 C 85.150 54.480,85.150 48.855,85.125 45.387 C 85.100 41.920,85.079 44.708,85.079 51.583 M257.705 39.833 C 257.705 40.154,257.740 40.285,257.782 40.125 C 257.823 39.965,257.823 39.702,257.782 39.542 C 257.740 39.381,257.705 39.512,257.705 39.833 M368.705 39.833 C 368.705 40.154,368.740 40.285,368.782 40.125 C 368.823 39.965,368.823 39.702,368.782 39.542 C 368.740 39.381,368.705 39.512,368.705 39.833 M71.961 39.787 C 72.261 39.825,72.711 39.824,72.961 39.786 C 73.212 39.748,72.967 39.717,72.417 39.718 C 71.867 39.719,71.662 39.750,71.961 39.787 M69.875 39.948 C 70.035 39.990,70.298 39.990,70.458 39.948 C 70.619 39.906,70.487 39.872,70.167 39.872 C 69.846 39.872,69.715 39.906,69.875 39.948 M379.550 42.333 C 379.550 42.837,379.581 43.044,379.619 42.792 C 379.658 42.540,379.658 42.127,379.619 41.875 C 379.581 41.623,379.550 41.829,379.550 42.333 M354.720 42.750 C 354.754 43.078,354.878 43.083,361.836 43.086 L 368.917 43.089 361.887 43.043 C 355.376 43.000,354.851 42.975,354.771 42.707 C 354.706 42.484,354.694 42.494,354.720 42.750 M186.970 43.125 C 188.924 43.152,192.074 43.151,193.970 43.125 C 195.865 43.098,194.267 43.076,190.417 43.076 C 186.567 43.076,185.015 43.098,186.970 43.125 M208.231 45.417 C 208.232 46.608,208.258 47.074,208.290 46.451 C 208.323 45.829,208.322 44.854,208.290 44.285 C 208.257 43.716,208.231 44.225,208.231 45.417 M343.539 44.333 C 343.539 44.654,343.573 44.785,343.615 44.625 C 343.657 44.465,343.657 44.202,343.615 44.042 C 343.573 43.881,343.539 44.012,343.539 44.333 M11.705 45.167 C 11.705 45.487,11.740 45.619,11.782 45.458 C 11.823 45.298,11.823 45.035,11.782 44.875 C 11.740 44.715,11.705 44.846,11.705 45.167 M109.903 48.000 C 109.903 49.788,109.928 50.519,109.958 49.625 C 109.988 48.731,109.988 47.269,109.958 46.375 C 109.928 45.481,109.903 46.212,109.903 48.000 M54.911 46.375 L 53.917 47.417 54.958 46.422 C 55.926 45.498,56.076 45.333,55.953 45.333 C 55.927 45.333,55.459 45.802,54.911 46.375 M343.383 46.500 C 343.383 47.004,343.415 47.210,343.453 46.958 C 343.491 46.706,343.491 46.294,343.453 46.042 C 343.415 45.790,343.383 45.996,343.383 46.500 M11.565 48.500 C 11.565 49.737,11.592 50.244,11.624 49.625 C 11.656 49.006,11.656 47.994,11.624 47.375 C 11.592 46.756,11.565 47.262,11.565 48.500 M305.398 48.500 C 305.398 49.646,305.424 50.115,305.457 49.542 C 305.489 48.969,305.489 48.031,305.457 47.458 C 305.424 46.885,305.398 47.354,305.398 48.500 M379.552 48.750 C 379.553 49.300,379.584 49.505,379.621 49.205 C 379.658 48.906,379.657 48.456,379.619 48.205 C 379.581 47.955,379.551 48.200,379.552 48.750 M343.385 51.583 C 343.386 52.133,343.417 52.338,343.454 52.039 C 343.491 51.739,343.490 51.289,343.452 51.039 C 343.414 50.788,343.384 51.033,343.385 51.583 M343.539 53.833 C 343.539 54.154,343.573 54.285,343.615 54.125 C 343.657 53.965,343.657 53.702,343.615 53.542 C 343.573 53.381,343.539 53.512,343.539 53.833 M50.064 59.083 C 50.064 60.183,50.091 60.612,50.124 60.035 C 50.156 59.459,50.156 58.559,50.123 58.035 C 50.090 57.512,50.063 57.983,50.064 59.083 M15.917 62.833 C 16.368 63.292,16.775 63.667,16.821 63.667 C 16.867 63.667,16.535 63.292,16.083 62.833 C 15.632 62.375,15.225 62.000,15.179 62.000 C 15.133 62.000,15.465 62.375,15.917 62.833 M309.833 62.917 C 310.331 63.421,310.776 63.833,310.822 63.833 C 310.868 63.833,310.498 63.421,310.000 62.917 C 309.502 62.413,309.057 62.000,309.011 62.000 C 308.966 62.000,309.335 62.413,309.833 62.917 M358.417 63.333 C 358.868 63.792,359.275 64.167,359.321 64.167 C 359.367 64.167,359.035 63.792,358.583 63.333 C 358.132 62.875,357.725 62.500,357.679 62.500 C 357.633 62.500,357.965 62.875,358.417 63.333 M204.955 64.454 C 205.106 64.560,205.174 65.684,205.210 68.675 L 205.259 72.750 205.255 68.597 C 205.251 65.050,205.214 64.434,205.000 64.376 C 204.818 64.327,204.806 64.348,204.955 64.454 M29.166 69.034 C 29.121 71.573,29.141 73.593,29.211 73.522 C 29.281 73.452,29.319 71.374,29.294 68.906 L 29.250 64.417 29.166 69.034 M323.000 69.034 C 322.954 71.573,322.974 73.593,323.044 73.522 C 323.115 73.452,323.152 71.374,323.128 68.906 L 323.083 64.417 323.000 69.034 M147.387 67.333 C 147.387 67.929,147.417 68.173,147.454 67.875 C 147.491 67.577,147.491 67.090,147.454 66.792 C 147.417 66.494,147.387 66.737,147.387 67.333 M85.205 67.333 C 85.205 67.654,85.240 67.785,85.282 67.625 C 85.323 67.465,85.323 67.202,85.282 67.042 C 85.240 66.881,85.205 67.012,85.205 67.333 M147.545 69.667 C 147.545 70.079,147.578 70.248,147.618 70.042 C 147.657 69.835,147.657 69.498,147.618 69.292 C 147.578 69.085,147.545 69.254,147.545 69.667 M54.417 71.000 C 54.868 71.458,55.275 71.833,55.321 71.833 C 55.367 71.833,55.035 71.458,54.583 71.000 C 54.132 70.542,53.725 70.167,53.679 70.167 C 53.633 70.167,53.965 70.542,54.417 71.000 M147.705 71.667 C 147.705 71.987,147.740 72.119,147.782 71.958 C 147.823 71.798,147.823 71.535,147.782 71.375 C 147.740 71.215,147.705 71.346,147.705 71.667 " stroke="none" fill="#838484" fill-rule="evenodd"></path><path id="path4" d="M388.573 3.542 L 388.083 4.083 388.625 3.594 C 389.130 3.138,389.243 3.000,389.115 3.000 C 389.086 3.000,388.842 3.244,388.573 3.542 M391.237 6.000 L 391.250 7.250 392.209 7.264 L 393.168 7.277 392.258 7.214 L 391.348 7.150 391.286 5.950 L 391.225 4.750 391.237 6.000 M135.778 5.444 C 135.717 5.506,135.667 10.235,135.667 15.954 C 135.667 23.772,135.619 26.323,135.474 26.234 C 135.354 26.160,135.327 26.188,135.402 26.310 C 135.779 26.920,135.833 25.619,135.833 15.909 L 135.833 5.504 141.542 5.458 L 147.250 5.412 141.569 5.373 C 138.445 5.351,135.839 5.383,135.778 5.444 M399.872 7.833 C 399.872 8.154,399.906 8.285,399.948 8.125 C 399.990 7.965,399.990 7.702,399.948 7.542 C 399.906 7.381,399.872 7.513,399.872 7.833 M391.136 10.250 C 391.107 11.213,391.140 12.001,391.208 12.000 C 391.277 12.000,391.333 11.213,391.333 10.250 C 391.333 7.988,391.203 7.988,391.136 10.250 M388.500 12.083 C 388.811 12.404,389.103 12.667,389.149 12.667 C 389.195 12.667,388.978 12.404,388.667 12.083 C 388.356 11.762,388.064 11.500,388.018 11.500 C 387.972 11.500,388.189 11.762,388.500 12.083 M20.708 21.282 C 20.869 21.323,21.131 21.323,21.292 21.282 C 21.452 21.240,21.321 21.205,21.000 21.205 C 20.679 21.205,20.548 21.240,20.708 21.282 M314.542 21.282 C 314.702 21.323,314.965 21.323,315.125 21.282 C 315.285 21.240,315.154 21.205,314.833 21.205 C 314.512 21.205,314.381 21.240,314.542 21.282 M232.724 22.917 C 232.724 23.650,232.754 23.929,232.789 23.537 C 232.824 23.145,232.824 22.545,232.788 22.204 C 232.752 21.863,232.723 22.183,232.724 22.917 M133.000 23.052 C 133.000 23.081,133.244 23.325,133.542 23.594 L 134.083 24.083 133.594 23.542 C 133.138 23.037,133.000 22.923,133.000 23.052 M264.667 25.250 C 264.978 25.571,265.270 25.833,265.315 25.833 C 265.361 25.833,265.144 25.571,264.833 25.250 C 264.522 24.929,264.230 24.667,264.185 24.667 C 264.139 24.667,264.356 24.929,264.667 25.250 M179.578 26.208 L 178.583 27.250 179.625 26.255 C 180.198 25.708,180.667 25.239,180.667 25.214 C 180.667 25.090,180.502 25.241,179.578 26.208 M232.888 26.250 C 232.889 26.892,232.919 27.134,232.955 26.788 C 232.991 26.442,232.990 25.917,232.954 25.621 C 232.917 25.325,232.887 25.608,232.888 26.250 M7.667 27.250 C 6.984 27.938,6.463 28.500,6.508 28.500 C 6.554 28.500,7.150 27.938,7.833 27.250 C 8.516 26.563,9.037 26.000,8.992 26.000 C 8.946 26.000,8.350 26.563,7.667 27.250 M300.573 28.208 L 300.083 28.750 300.625 28.260 C 301.130 27.804,301.243 27.667,301.115 27.667 C 301.086 27.667,300.842 27.910,300.573 28.208 M64.208 29.615 C 64.369 29.657,64.631 29.657,64.792 29.615 C 64.952 29.573,64.821 29.539,64.500 29.539 C 64.179 29.539,64.048 29.573,64.208 29.615 M233.058 30.833 C 233.058 31.613,233.087 31.931,233.122 31.542 C 233.157 31.152,233.157 30.515,233.122 30.125 C 233.087 29.735,233.058 30.054,233.058 30.833 M358.406 31.375 L 357.917 31.917 358.458 31.427 C 358.963 30.971,359.077 30.833,358.948 30.833 C 358.919 30.833,358.675 31.077,358.406 31.375 M310.073 33.375 L 309.583 33.917 310.125 33.427 C 310.630 32.971,310.743 32.833,310.615 32.833 C 310.586 32.833,310.342 33.077,310.073 33.375 M269.212 37.500 C 269.212 37.912,269.245 38.081,269.284 37.875 C 269.324 37.669,269.324 37.331,269.284 37.125 C 269.245 36.919,269.212 37.087,269.212 37.500 M73.392 38.500 C 73.392 39.279,73.420 39.598,73.455 39.208 C 73.490 38.819,73.490 38.181,73.455 37.792 C 73.420 37.402,73.392 37.721,73.392 38.500 M135.746 52.833 C 135.746 60.121,135.767 63.102,135.792 59.458 C 135.817 55.815,135.817 49.852,135.792 46.208 C 135.767 42.565,135.746 45.546,135.746 52.833 M70.875 39.948 C 71.035 39.990,71.298 39.990,71.458 39.948 C 71.619 39.906,71.487 39.872,71.167 39.872 C 70.846 39.872,70.715 39.906,70.875 39.948 M368.893 41.667 C 368.893 42.537,368.922 42.894,368.956 42.458 C 368.990 42.023,368.990 41.310,368.956 40.875 C 368.922 40.440,368.893 40.796,368.893 41.667 M379.372 41.000 C 379.372 41.321,379.406 41.452,379.448 41.292 C 379.490 41.131,379.490 40.869,379.448 40.708 C 379.406 40.548,379.372 40.679,379.372 41.000 M354.709 41.917 C 354.711 42.283,354.745 42.414,354.785 42.206 C 354.824 41.999,354.823 41.699,354.781 41.540 C 354.739 41.380,354.707 41.550,354.709 41.917 M379.566 45.500 C 379.566 46.829,379.592 47.373,379.624 46.708 C 379.655 46.044,379.655 44.956,379.624 44.292 C 379.592 43.627,379.566 44.171,379.566 45.500 M343.545 45.500 C 343.545 45.913,343.578 46.081,343.618 45.875 C 343.657 45.669,343.657 45.331,343.618 45.125 C 343.578 44.919,343.545 45.087,343.545 45.500 M11.542 45.750 C 11.544 46.117,11.578 46.247,11.618 46.040 C 11.658 45.832,11.656 45.532,11.615 45.373 C 11.573 45.214,11.540 45.383,11.542 45.750 M305.375 45.917 C 305.377 46.283,305.411 46.414,305.451 46.206 C 305.491 45.999,305.490 45.699,305.448 45.540 C 305.406 45.380,305.374 45.550,305.375 45.917 M172.069 49.083 C 172.069 50.733,172.094 51.386,172.124 50.533 C 172.155 49.681,172.154 48.331,172.124 47.533 C 172.093 46.736,172.069 47.433,172.069 49.083 M121.395 48.167 C 121.395 49.129,121.423 49.523,121.456 49.042 C 121.490 48.560,121.490 47.773,121.456 47.292 C 121.423 46.810,121.395 47.204,121.395 48.167 M343.395 49.000 C 343.395 49.962,343.423 50.356,343.456 49.875 C 343.490 49.394,343.490 48.606,343.456 48.125 C 343.423 47.644,343.395 48.038,343.395 49.000 M73.745 56.750 C 73.745 61.883,73.766 64.007,73.792 61.470 C 73.817 58.933,73.817 54.733,73.792 52.137 C 73.766 49.541,73.745 51.617,73.745 56.750 M305.209 48.583 C 305.211 48.950,305.245 49.080,305.285 48.873 C 305.324 48.666,305.323 48.366,305.281 48.206 C 305.239 48.047,305.207 48.217,305.209 48.583 M63.740 50.708 L 63.250 51.250 63.792 50.760 C 64.297 50.304,64.410 50.167,64.281 50.167 C 64.252 50.167,64.009 50.410,63.740 50.708 M305.381 51.250 C 305.382 51.708,305.415 51.876,305.453 51.623 C 305.491 51.369,305.490 50.994,305.451 50.789 C 305.411 50.584,305.380 50.792,305.381 51.250 M11.542 51.250 C 11.544 51.617,11.578 51.747,11.618 51.540 C 11.658 51.332,11.656 51.032,11.615 50.873 C 11.573 50.714,11.540 50.883,11.542 51.250 M0.039 51.500 C 0.039 51.821,0.073 51.952,0.115 51.792 C 0.157 51.631,0.157 51.369,0.115 51.208 C 0.073 51.048,0.039 51.179,0.039 51.500 M183.209 52.417 C 183.211 52.783,183.245 52.914,183.285 52.706 C 183.324 52.499,183.323 52.199,183.281 52.040 C 183.239 51.880,183.207 52.050,183.209 52.417 M343.548 52.583 C 343.549 53.042,343.581 53.209,343.620 52.956 C 343.658 52.703,343.657 52.328,343.617 52.123 C 343.578 51.918,343.546 52.125,343.548 52.583 M354.705 53.833 C 354.705 54.154,354.740 54.285,354.782 54.125 C 354.823 53.965,354.823 53.702,354.782 53.542 C 354.740 53.381,354.705 53.512,354.705 53.833 M61.048 57.917 C 61.049 58.375,61.081 58.543,61.120 58.289 C 61.158 58.036,61.157 57.661,61.117 57.456 C 61.078 57.251,61.046 57.458,61.048 57.917 M147.224 64.083 C 147.224 64.817,147.254 65.096,147.289 64.704 C 147.324 64.312,147.324 63.712,147.288 63.371 C 147.252 63.029,147.223 63.350,147.224 64.083 M63.167 64.417 C 63.478 64.737,63.770 65.000,63.815 65.000 C 63.861 65.000,63.644 64.737,63.333 64.417 C 63.022 64.096,62.730 63.833,62.685 63.833 C 62.639 63.833,62.856 64.096,63.167 64.417 M125.500 64.417 C 125.811 64.737,126.103 65.000,126.149 65.000 C 126.195 65.000,125.978 64.737,125.667 64.417 C 125.356 64.096,125.064 63.833,125.018 63.833 C 124.972 63.833,125.189 64.096,125.500 64.417 M85.048 64.750 C 85.049 65.208,85.081 65.376,85.120 65.123 C 85.158 64.869,85.157 64.494,85.117 64.289 C 85.078 64.084,85.046 64.292,85.048 64.750 M376.500 68.534 C 376.454 70.890,376.474 72.759,376.545 72.689 C 376.615 72.618,376.652 70.691,376.628 68.405 L 376.583 64.250 376.500 68.534 M22.208 65.789 C 22.644 65.824,23.356 65.824,23.792 65.789 C 24.227 65.755,23.871 65.727,23.000 65.727 C 22.129 65.727,21.773 65.755,22.208 65.789 M316.131 65.790 C 316.615 65.824,317.365 65.823,317.797 65.789 C 318.230 65.755,317.833 65.727,316.917 65.728 C 316.000 65.728,315.646 65.756,316.131 65.790 M194.542 66.288 C 194.885 66.324,195.448 66.324,195.792 66.288 C 196.135 66.252,195.854 66.223,195.167 66.223 C 194.479 66.223,194.198 66.252,194.542 66.288 M365.796 66.289 C 366.188 66.324,366.788 66.324,367.129 66.288 C 367.471 66.252,367.150 66.223,366.417 66.224 C 365.683 66.224,365.404 66.254,365.796 66.289 M85.205 68.333 C 85.205 68.654,85.240 68.785,85.282 68.625 C 85.323 68.465,85.323 68.202,85.282 68.042 C 85.240 67.881,85.205 68.012,85.205 68.333 M178.750 69.833 C 179.294 70.383,179.777 70.833,179.823 70.833 C 179.869 70.833,179.461 70.383,178.917 69.833 C 178.372 69.283,177.890 68.833,177.844 68.833 C 177.798 68.833,178.206 69.283,178.750 69.833 M300.750 69.833 C 301.294 70.383,301.777 70.833,301.823 70.833 C 301.869 70.833,301.461 70.383,300.917 69.833 C 300.372 69.283,299.890 68.833,299.844 68.833 C 299.798 68.833,300.206 69.283,300.750 69.833 M7.083 70.000 C 7.535 70.458,7.942 70.833,7.987 70.833 C 8.033 70.833,7.701 70.458,7.250 70.000 C 6.799 69.542,6.392 69.167,6.346 69.167 C 6.300 69.167,6.632 69.542,7.083 70.000 M147.539 70.833 C 147.539 71.154,147.573 71.285,147.615 71.125 C 147.657 70.965,147.657 70.702,147.615 70.542 C 147.573 70.381,147.539 70.512,147.539 70.833 M233.310 74.544 C 233.381 74.614,235.983 74.651,239.094 74.627 L 244.750 74.583 238.967 74.500 C 235.786 74.454,233.240 74.474,233.310 74.544 M257.977 74.544 C 258.047 74.614,260.612 74.651,263.677 74.627 L 269.250 74.583 263.550 74.500 C 260.415 74.454,257.907 74.474,257.977 74.544 M68.542 74.625 C 71.727 74.650,76.940 74.650,80.125 74.625 C 83.310 74.600,80.704 74.579,74.333 74.579 C 67.962 74.579,65.356 74.600,68.542 74.625 M130.637 74.625 C 133.875 74.650,139.125 74.650,142.304 74.625 C 145.483 74.600,142.833 74.579,136.417 74.579 C 130.000 74.579,127.399 74.600,130.637 74.625 M194.375 75.115 C 194.535 75.157,194.798 75.157,194.958 75.115 C 195.119 75.073,194.987 75.039,194.667 75.039 C 194.346 75.039,194.215 75.073,194.375 75.115 M365.875 75.115 C 366.035 75.157,366.298 75.157,366.458 75.115 C 366.619 75.073,366.488 75.039,366.167 75.039 C 365.846 75.039,365.715 75.073,365.875 75.115 " stroke="none" fill="#747474" fill-rule="evenodd"></path></g></svg>