<svg version="1.1" id="Layer_1" xmlns="http://www.w3.org/2000/svg" xmlns:xlink="http://www.w3.org/1999/xlink" x="0px" y="0px"
	 width="100%" viewBox="0 0 3600 623" enable-background="new 0 0 3600 623" xml:space="preserve">
<path fill="#000000" opacity="1.000000" stroke="none" 
	d="
M2476.000000,624.000000 
	C1650.666626,624.000000 825.833313,624.000000 1.000000,624.000000 
	C1.000000,416.333344 1.000000,208.666672 1.000000,1.000000 
	C1201.000000,1.000000 2401.000000,1.000000 3601.000000,1.000000 
	C3601.000000,208.666672 3601.000000,416.333344 3601.000000,624.000000 
	C3226.166748,624.000000 2851.333252,624.000000 2476.000000,624.000000 
M1773.949829,485.336029 
	C1784.548096,469.706451 1793.481812,453.113892 1800.567017,435.673065 
	C1810.809448,410.459686 1817.211426,384.096954 1819.793701,357.035614 
	C1821.241455,341.863068 1820.689819,326.497833 1820.994507,311.218536 
	C1821.379150,291.923309 1819.859009,272.756439 1815.917725,253.878433 
	C1812.843994,239.156494 1810.071533,224.225922 1805.197388,210.065399 
	C1800.010620,194.996323 1792.903687,180.531860 1785.912231,166.154984 
	C1777.801636,149.476700 1766.414673,134.906784 1753.799072,121.441780 
	C1737.025146,103.538521 1717.776001,88.756104 1696.361450,76.591385 
	C1673.219849,63.445503 1648.718140,53.824848 1623.111938,47.181274 
	C1607.753418,43.196487 1592.016724,40.428791 1576.302002,38.123081 
	C1560.278076,35.771965 1544.082031,33.340328 1527.945312,33.226013 
	C1454.964355,32.708992 1381.977661,33.000008 1308.993042,33.000011 
	C1307.401245,33.000011 1305.809448,33.000015 1304.320801,33.000015 
	C1304.320801,219.690903 1304.320801,405.725281 1304.320801,592.000000 
	C1306.620117,592.000000 1308.600342,592.000000 1310.580566,592.000000 
	C1382.898682,592.000000 1455.217163,592.139282 1527.534546,591.908447 
	C1547.219238,591.845581 1566.931030,591.127258 1586.572021,589.827820 
	C1598.235718,589.056213 1609.971069,587.354126 1621.348511,584.683044 
	C1646.948975,578.672729 1671.592773,569.917114 1694.615601,556.864746 
	C1713.342529,546.247864 1730.573853,533.586487 1745.731445,518.450439 
	C1755.790039,508.406067 1764.326538,496.837372 1773.949829,485.336029 
M2289.066895,269.353790 
	C2284.718994,256.834106 2280.343994,244.323593 2276.028564,231.792740 
	C2265.343506,200.768311 2254.679443,169.736694 2244.018066,138.704178 
	C2232.464111,105.073608 2220.836426,71.467827 2209.494629,37.765781 
	C2208.201904,33.924778 2206.614990,32.890533 2202.675293,32.900234 
	C2144.015381,33.044643 2085.355225,33.000000 2026.695068,33.000000 
	C2015.037964,33.000000 2003.380859,33.000000 1991.530762,33.000000 
	C1930.003662,219.245514 1868.509033,405.392365 1806.862305,592.000000 
	C1809.080566,592.000000 1810.880615,592.000000 1812.680664,592.000000 
	C1877.506836,592.000000 1942.332886,591.967651 2007.158936,592.072815 
	C2011.487305,592.079834 2013.498901,591.613220 2014.539062,586.380371 
	C2018.515991,566.373657 2023.671387,546.602905 2027.765259,526.616699 
	C2028.601929,522.531982 2029.912964,521.937500 2033.411865,521.945923 
	C2069.907715,522.033691 2106.403809,521.999939 2142.899658,522.000000 
	C2152.065430,522.000000 2161.233643,521.886841 2170.394043,522.110229 
	C2171.942627,522.148010 2174.500244,523.338745 2174.830811,524.498596 
	C2180.723877,545.177002 2186.414062,565.914490 2191.962158,586.688904 
	C2193.000732,590.577637 2194.554688,592.135620 2198.969238,592.123535 
	C2264.294922,591.944519 2329.621094,592.000000 2394.947266,592.000000 
	C2396.549561,592.000000 2398.151855,592.000000 2400.361572,592.000000 
	C2394.775391,576.317688 2389.270508,561.315552 2384.081299,546.205078 
	C2372.951904,513.796143 2362.028564,481.316437 2350.937988,448.894104 
	C2342.828857,425.188568 2334.545898,401.542572 2326.413574,377.845032 
	C2314.083252,341.914429 2301.816406,305.962158 2289.066895,269.353790 
M2579.937012,347.266266 
	C2578.231934,352.930084 2576.527100,358.593933 2574.822021,364.257751 
	C2574.359619,364.147400 2573.897461,364.037079 2573.435303,363.926727 
	C2545.179688,253.674194 2516.924072,143.421661 2488.698486,33.286003 
	C2421.017578,33.286003 2353.625977,33.286003 2286.248535,33.286003 
	C2286.248535,33.887951 2286.158936,34.236938 2286.261475,34.515102 
	C2294.702881,57.406685 2303.171143,80.288368 2311.611572,103.180359 
	C2324.243408,137.441925 2336.853760,171.711548 2349.478516,205.975739 
	C2361.153564,237.662537 2372.809082,269.356689 2384.523438,301.029022 
	C2394.555908,328.155029 2404.721680,355.231842 2414.711182,382.373566 
	C2422.357178,403.147217 2429.742676,424.016541 2437.382324,444.792328 
	C2448.200195,474.211090 2459.128174,503.589386 2470.042725,532.972595 
	C2476.906738,551.451843 2484.039062,569.835938 2490.560059,588.434875 
	C2491.926270,592.331299 2494.102295,591.997620 2496.846924,591.997742 
	C2548.673828,592.000793 2600.500488,592.000000 2652.327393,592.000000 
	C2653.795166,592.000000 2655.262939,592.000000 2656.939209,592.000000 
	C2725.845703,405.705719 2794.658203,219.665970 2863.537598,33.445221 
	C2862.226074,33.197685 2861.742188,33.026421 2861.258057,33.026299 
	C2795.266357,33.009533 2729.274902,33.026318 2663.283203,32.934811 
	C2660.162842,32.930485 2659.538330,34.422455 2658.950684,36.941917 
	C2656.340088,48.135242 2653.662598,59.315830 2650.797119,70.446350 
	C2643.255371,99.741669 2635.532471,128.990417 2628.017334,158.292404 
	C2621.504150,183.686798 2615.240967,209.145142 2608.750732,234.545532 
	C2599.218994,271.851044 2589.583984,309.130127 2579.937012,347.266266 
M3327.383057,205.890106 
	C3326.656494,203.751434 3325.819824,201.643143 3325.221680,199.469131 
	C3321.208496,184.888504 3326.632324,173.258957 3334.728027,167.156677 
	C3344.353516,159.901184 3355.570068,156.614227 3367.639404,157.073410 
	C3374.336182,157.328201 3381.017334,158.222229 3387.683838,159.012314 
	C3405.420410,161.114395 3422.267578,166.656860 3437.972656,174.745865 
	C3455.361328,183.702179 3471.954346,194.203049 3489.308594,204.271835 
	C3505.480469,161.035446 3521.973877,116.939880 3538.509521,72.730995 
	C3530.692383,68.145302 3523.560303,63.665665 3516.163086,59.678993 
	C3495.993408,48.809025 3474.822510,40.382854 3452.715088,34.320965 
	C3432.538086,28.788404 3411.928467,25.093552 3391.127686,24.295635 
	C3372.163818,23.568190 3353.015625,24.425249 3334.116699,26.288790 
	C3319.841553,27.696434 3305.633301,31.066189 3291.744629,34.846333 
	C3264.272949,42.323540 3239.160889,54.856262 3216.207520,71.874992 
	C3201.164551,83.028503 3187.564941,95.627617 3176.330078,110.487419 
	C3161.959961,129.493622 3150.524170,150.278351 3144.927246,173.619827 
	C3141.487549,187.965057 3138.796631,202.597626 3137.270996,217.257446 
	C3136.201172,227.537125 3137.563477,238.085007 3138.021973,248.505096 
	C3138.731445,264.645294 3143.327881,279.894989 3150.191162,294.310120 
	C3160.755859,316.499603 3176.738281,334.249786 3197.096436,347.999634 
	C3218.177490,362.237640 3241.386963,371.560699 3266.150146,376.947083 
	C3288.804932,381.874786 3311.633789,386.016357 3334.243408,391.133392 
	C3346.310303,393.864319 3356.720947,399.770905 3362.797607,411.422729 
	C3366.385742,418.302795 3364.435059,425.674347 3365.018066,432.823425 
	C3365.795410,442.358429 3358.762695,452.169067 3348.969482,456.096222 
	C3330.503418,463.501312 3311.389160,461.900391 3292.549072,459.519379 
	C3277.172363,457.576019 3262.385986,452.518066 3248.088379,446.135559 
	C3230.681641,438.365326 3213.934570,429.539368 3198.654785,418.108429 
	C3190.843750,412.265137 3183.267090,406.108826 3175.184570,399.780914 
	C3156.188477,449.537628 3137.254639,499.131012 3118.313477,548.742981 
	C3118.750000,549.142944 3119.061035,549.573730 3119.481934,549.792480 
	C3139.346924,560.112671 3159.697266,569.434204 3181.127441,575.903992 
	C3199.998047,581.601013 3219.212158,586.174255 3238.317627,591.076660 
	C3258.956787,596.372681 3280.109863,598.656677 3301.267334,599.762390 
	C3317.630859,600.617737 3334.139893,599.865906 3350.520752,598.823975 
	C3362.357666,598.071045 3374.162354,596.063965 3385.851807,593.911804 
	C3404.373535,590.501587 3422.291748,584.778748 3439.338135,576.820435 
	C3458.243652,567.994080 3476.133057,557.539124 3492.065186,543.688660 
	C3508.486572,529.413147 3522.266846,513.194641 3532.918457,494.319458 
	C3547.420410,468.622772 3554.514648,440.648987 3555.720703,411.439911 
	C3556.320801,396.899597 3554.878662,382.117126 3552.832275,367.660400 
	C3549.264404,342.452606 3539.414795,319.825745 3522.803955,300.110352 
	C3510.138428,285.076874 3495.044678,273.385223 3477.974854,264.008270 
	C3455.771484,251.811127 3431.786133,244.688873 3407.263672,238.930191 
	C3389.005127,234.642502 3370.742188,230.219955 3352.799316,224.803864 
	C3342.703125,221.756348 3333.096191,216.780304 3327.383057,205.890106 
M59.256325,57.056145 
	C66.348946,59.771950 73.406746,62.583645 80.544075,65.176369 
	C87.559525,67.724808 90.113762,70.990959 89.961494,78.583519 
	C89.799103,86.680832 89.048729,94.771873 89.043289,102.865982 
	C88.976723,201.858246 88.908882,300.850739 89.089600,399.842743 
	C89.119759,416.361694 89.943047,432.905792 91.102455,449.388885 
	C92.356125,467.212036 97.616547,484.159637 105.661568,500.011963 
	C114.432472,517.294617 125.924980,532.531555 140.722549,545.471802 
	C160.294022,562.586731 182.597900,574.651001 206.925598,582.811646 
	C222.366104,587.991150 238.348694,591.942749 254.375015,594.880127 
	C270.897064,597.908325 287.736023,600.278198 304.492157,600.695984 
	C326.981293,601.256653 349.540466,599.994995 372.036987,598.866028 
	C383.769867,598.277283 395.567291,596.998596 407.098328,594.791870 
	C428.396851,590.715881 449.404510,585.411316 469.554169,577.050781 
	C491.808777,567.816833 512.466675,555.998657 530.464600,539.934082 
	C550.547058,522.008850 565.523499,500.367249 575.882385,475.505981 
	C585.421326,452.612488 591.005310,428.608368 591.730896,404.031128 
	C593.021790,360.301605 592.842773,316.523926 592.958008,272.765564 
	C593.122986,210.104202 592.997681,147.442093 593.002747,84.780289 
	C593.003418,76.476753 595.807861,72.681679 603.754883,69.965744 
	C605.891724,69.235474 607.964355,68.313751 610.054871,67.451721 
	C627.543152,60.240189 645.120422,53.228680 662.404846,45.557461 
	C664.694763,44.541122 666.774109,40.106361 666.665771,37.344357 
	C666.516785,33.543797 662.352173,31.963488 658.901733,32.186134 
	C648.948547,32.828403 639.045044,34.213356 629.095642,34.949707 
	C617.256531,35.825920 605.395508,36.465485 593.533630,36.959686 
	C581.447144,37.463249 569.341370,38.093163 557.255920,37.905605 
	C536.063599,37.576721 514.876770,36.755543 493.695892,35.929501 
	C488.992432,35.746071 484.315521,34.736004 479.640167,34.016891 
	C473.746216,33.110359 467.891479,35.509518 467.025726,39.277931 
	C466.202759,42.860146 470.197815,48.292221 474.978058,49.958492 
	C492.217133,55.967617 509.461395,61.961910 526.715149,67.928635 
	C533.437256,70.253273 534.999390,72.335365 534.999451,79.324570 
	C535.000305,179.650101 535.180115,279.976288 534.820923,380.300537 
	C534.761719,396.835571 533.285095,413.506470 530.795227,429.860565 
	C526.498413,458.083405 515.739624,483.660400 496.970184,505.756531 
	C485.613312,519.126343 471.988770,529.186523 456.588806,536.991272 
	C436.173584,547.337708 414.115875,552.531738 391.502655,553.734985 
	C369.504730,554.905518 347.387512,554.934021 325.674377,549.096130 
	C301.936188,542.713745 280.738312,531.976746 263.234650,514.630310 
	C250.272247,501.784271 240.287796,486.849091 232.915237,470.038483 
	C222.900574,447.203430 217.532608,423.287659 217.160690,398.564056 
	C216.317001,342.481567 216.217728,286.386505 216.034561,230.295883 
	C215.870758,180.133636 215.966202,129.970383 216.046921,79.807747 
	C216.056061,74.127251 217.064972,68.853477 223.719070,66.647453 
	C230.609268,64.363136 237.212540,61.194229 244.133636,59.026241 
	C257.700958,54.776363 271.408752,50.976223 285.042053,46.934834 
	C288.070099,46.037220 290.466309,44.415215 291.015808,40.914299 
	C291.618073,37.077412 290.252838,34.210918 286.514740,33.321800 
	C283.849030,32.687744 280.930481,32.876251 278.143860,33.034245 
	C267.950928,33.612152 257.772156,34.452454 247.576675,34.968422 
	C232.227692,35.745186 216.866806,36.938225 201.515076,36.879890 
	C163.991531,36.737320 126.437630,38.308220 88.950500,35.070347 
	C76.134346,33.963379 63.242004,33.765457 50.396946,32.954617 
	C43.876812,32.543034 37.367840,31.114910 30.886913,31.300697 
	C27.953423,31.384794 23.128139,30.480349 22.034849,35.524448 
	C20.945976,40.548157 23.049822,44.192768 27.924623,45.958405 
	C38.099499,49.643707 48.277912,53.319260 59.256325,57.056145 
M898.532715,92.980186 
	C909.069031,86.978935 919.354736,80.473541 930.195190,75.084106 
	C951.111694,64.685303 973.724670,59.729862 996.798584,58.260422 
	C1015.327271,57.080441 1033.898438,57.776337 1052.400024,61.747494 
	C1078.533203,67.356651 1103.638184,75.489952 1127.588623,87.246780 
	C1137.440308,92.082825 1145.234985,98.664291 1149.344116,109.578323 
	C1158.169556,133.018280 1167.563477,156.250031 1177.085449,179.418777 
	C1180.636230,188.058640 1184.905151,196.443909 1189.419067,204.629562 
	C1191.526978,208.452072 1195.711426,211.815781 1200.058594,209.543655 
	C1202.344604,208.348785 1203.811646,203.543640 1203.792725,200.379791 
	C1203.743652,192.150055 1202.918457,183.896713 1201.944580,175.707321 
	C1200.481201,163.399658 1198.566528,151.146347 1196.956665,138.855148 
	C1195.556519,128.165802 1194.272339,117.460693 1193.014526,106.753448 
	C1192.231079,100.084290 1191.669556,93.388824 1190.868896,86.721916 
	C1189.642334,76.508759 1187.809814,66.337845 1187.223267,56.092403 
	C1186.964966,51.577824 1185.316895,49.428745 1181.590210,48.277767 
	C1167.072998,43.794102 1152.626221,39.032669 1137.962158,35.084358 
	C1112.163818,28.138111 1085.806152,23.909157 1059.274780,21.150585 
	C1042.405396,19.396605 1025.399902,18.321617 1008.445435,18.184479 
	C990.098022,18.036072 971.710449,18.904558 953.394104,20.131882 
	C938.394043,21.136993 923.325256,22.506235 908.553833,25.185457 
	C889.777222,28.591116 871.110779,32.893402 852.687256,37.881805 
	C829.902771,44.050999 808.658264,54.157207 788.243774,65.968056 
	C770.776917,76.073547 754.706909,88.105263 740.398132,102.290634 
	C732.827637,109.795784 726.019897,118.107071 719.217468,126.343178 
	C701.446899,147.859039 688.742310,172.300079 679.369751,198.411560 
	C671.529175,220.255264 665.415588,242.622589 662.953979,265.829803 
	C661.331299,281.127441 658.580811,296.397186 658.265442,311.719116 
	C657.850525,331.881470 658.753906,352.124512 660.208679,372.252075 
	C661.107544,384.688690 663.262817,397.182343 666.309631,409.283905 
	C671.938110,431.639099 680.194946,453.064850 691.964355,473.056580 
	C705.880310,496.694366 722.844055,517.564636 744.247375,534.969543 
	C761.020813,548.609436 779.105774,559.861450 798.632202,568.939514 
	C823.583130,580.539551 849.577332,588.962036 876.810669,592.925781 
	C898.793091,596.125183 920.862549,599.749512 942.994568,600.624207 
	C967.616577,601.597290 992.376099,600.114807 1017.031738,598.847046 
	C1033.033447,598.024231 1049.009766,596.061462 1064.898682,593.887878 
	C1078.567749,592.017944 1092.202271,589.595398 1105.665405,586.583130 
	C1129.693115,581.206848 1153.067993,573.587524 1175.596558,563.618835 
	C1181.034546,561.212585 1187.682495,559.660339 1189.694946,552.676392 
	C1190.949951,548.321167 1191.955322,543.890808 1192.975586,539.471680 
	C1199.169189,512.646362 1205.372925,485.823242 1211.491333,458.980743 
	C1213.944458,448.218231 1217.308472,437.654358 1215.403809,426.197693 
	C1214.859009,422.920776 1214.018188,420.600494 1211.370361,420.367218 
	C1209.392944,420.193024 1206.691772,421.840149 1205.242676,423.491943 
	C1202.780884,426.298187 1200.560181,429.537933 1199.102783,432.963348 
	C1193.854614,445.298523 1188.671631,457.677765 1184.019287,470.245941 
	C1178.228638,485.889130 1170.291748,500.210724 1158.334961,511.846130 
	C1141.283325,528.439514 1120.769287,539.369507 1098.428467,547.312561 
	C1074.458496,555.834900 1049.631348,560.061462 1024.478149,561.746826 
	C1007.581665,562.879028 990.580872,562.295776 973.647949,559.213928 
	C950.125610,554.932922 928.513184,546.534607 908.695251,533.288940 
	C893.437439,523.091064 880.213440,510.756897 868.787109,496.370361 
	C854.841919,478.812469 843.508728,459.704803 835.148743,438.985748 
	C826.293091,417.038239 819.716736,394.414093 815.744629,370.946014 
	C812.643616,352.624359 810.801758,334.257690 810.117432,315.764893 
	C809.775696,306.529449 810.897095,297.249756 810.950256,287.987762 
	C811.054016,269.882782 813.641602,252.092865 816.970337,234.357147 
	C822.481995,204.990723 831.889404,177.085434 846.929382,151.121994 
	C860.080688,128.419067 876.808899,109.004181 898.532715,92.980186 
M2883.000000,40.569469 
	C2883.000000,224.287720 2883.000000,408.005981 2883.000000,591.679626 
	C2948.324219,591.679626 3013.041992,591.679626 3077.693848,591.679626 
	C3077.693848,405.329193 3077.693848,219.299316 3077.693848,33.324051 
	C3012.669434,33.324051 2947.952148,33.324051 2883.000000,33.324051 
	C2883.000000,35.624790 2883.000000,37.606728 2883.000000,40.569469 
z"/>
<path fill="#FFBF00" opacity="1.000000" stroke="none" 
	d="
M1773.747070,485.643494 
	C1764.326538,496.837372 1755.790039,508.406067 1745.731445,518.450439 
	C1730.573853,533.586487 1713.342529,546.247864 1694.615601,556.864746 
	C1671.592773,569.917114 1646.948975,578.672729 1621.348511,584.683044 
	C1609.971069,587.354126 1598.235718,589.056213 1586.572021,589.827820 
	C1566.931030,591.127258 1547.219238,591.845581 1527.534546,591.908447 
	C1455.217163,592.139282 1382.898682,592.000000 1310.580566,592.000000 
	C1308.600342,592.000000 1306.620117,592.000000 1304.320801,592.000000 
	C1304.320801,405.725281 1304.320801,219.690903 1304.320801,33.000015 
	C1305.809448,33.000015 1307.401245,33.000011 1308.993042,33.000011 
	C1381.977661,33.000008 1454.964355,32.708992 1527.945312,33.226013 
	C1544.082031,33.340328 1560.278076,35.771965 1576.302002,38.123081 
	C1592.016724,40.428791 1607.753418,43.196487 1623.111938,47.181274 
	C1648.718140,53.824848 1673.219849,63.445503 1696.361450,76.591385 
	C1717.776001,88.756104 1737.025146,103.538521 1753.799072,121.441780 
	C1766.414673,134.906784 1777.801636,149.476700 1785.912231,166.154984 
	C1792.903687,180.531860 1800.010620,194.996323 1805.197388,210.065399 
	C1810.071533,224.225922 1812.843994,239.156494 1815.917725,253.878433 
	C1819.859009,272.756439 1821.379150,291.923309 1820.994507,311.218536 
	C1820.689819,326.497833 1821.241455,341.863068 1819.793701,357.035614 
	C1817.211426,384.096954 1810.809448,410.459686 1800.567017,435.673065 
	C1793.481812,453.113892 1784.548096,469.706451 1773.747070,485.643494 
M1619.531860,359.970398 
	C1621.354614,350.747559 1624.126709,341.588501 1624.752075,332.285156 
	C1625.481445,321.435333 1624.600830,310.443390 1623.943115,299.541809 
	C1622.811890,280.794891 1617.447266,263.230743 1607.978882,246.992081 
	C1598.783936,231.222260 1586.072266,219.204773 1569.724487,210.893341 
	C1558.458008,205.165344 1546.747314,201.169418 1534.163940,199.989105 
	C1522.926025,198.935013 1511.664429,198.134064 1500.274658,197.210175 
	C1500.274658,275.927582 1500.274658,353.297577 1500.274658,431.756500 
	C1511.581787,430.824036 1522.576172,430.269012 1533.476685,428.942993 
	C1554.215088,426.420227 1572.867676,418.900116 1589.188477,405.480499 
	C1603.776611,393.485382 1613.511230,378.526672 1619.531860,359.970398 
z"/>
<path fill="#FFBF00" opacity="1.000000" stroke="none" 
	d="
M2289.294922,269.686462 
	C2301.816406,305.962158 2314.083252,341.914429 2326.413574,377.845032 
	C2334.545898,401.542572 2342.828857,425.188568 2350.937988,448.894104 
	C2362.028564,481.316437 2372.951904,513.796143 2384.081299,546.205078 
	C2389.270508,561.315552 2394.775391,576.317688 2400.361572,592.000000 
	C2398.151855,592.000000 2396.549561,592.000000 2394.947266,592.000000 
	C2329.621094,592.000000 2264.294922,591.944519 2198.969238,592.123535 
	C2194.554688,592.135620 2193.000732,590.577637 2191.962158,586.688904 
	C2186.414062,565.914490 2180.723877,545.177002 2174.830811,524.498596 
	C2174.500244,523.338745 2171.942627,522.148010 2170.394043,522.110229 
	C2161.233643,521.886841 2152.065430,522.000000 2142.899658,522.000000 
	C2106.403809,521.999939 2069.907715,522.033691 2033.411865,521.945923 
	C2029.912964,521.937500 2028.601929,522.531982 2027.765259,526.616699 
	C2023.671387,546.602905 2018.515991,566.373657 2014.539062,586.380371 
	C2013.498901,591.613220 2011.487305,592.079834 2007.158936,592.072815 
	C1942.332886,591.967651 1877.506836,592.000000 1812.680664,592.000000 
	C1810.880615,592.000000 1809.080566,592.000000 1806.862305,592.000000 
	C1868.509033,405.392365 1930.003662,219.245514 1991.530762,33.000000 
	C2003.380859,33.000000 2015.037964,33.000000 2026.695068,33.000000 
	C2085.355225,33.000000 2144.015381,33.044643 2202.675293,32.900234 
	C2206.614990,32.890533 2208.201904,33.924778 2209.494629,37.765781 
	C2220.836426,71.467827 2232.464111,105.073608 2244.018066,138.704178 
	C2254.679443,169.736694 2265.343506,200.768311 2276.028564,231.792740 
	C2280.343994,244.323593 2284.718994,256.834106 2289.294922,269.686462 
M2080.063477,305.755920 
	C2080.031738,306.754974 2080.142090,307.782684 2079.947266,308.748840 
	C2074.591064,335.290314 2069.203613,361.825500 2063.750732,388.710693 
	C2089.023438,388.710693 2113.890869,388.710693 2139.868652,388.710693 
	C2127.278564,326.182495 2114.786621,264.142792 2102.294922,202.103058 
	C2101.864746,202.040741 2101.434814,201.978439 2101.004639,201.916122 
	C2094.169678,236.277420 2087.334961,270.638702 2080.063477,305.755920 
z"/>
<path fill="#FFBF00" opacity="1.000000" stroke="none" 
	d="
M2579.964844,346.843384 
	C2589.583984,309.130127 2599.218994,271.851044 2608.750732,234.545532 
	C2615.240967,209.145142 2621.504150,183.686798 2628.017334,158.292404 
	C2635.532471,128.990417 2643.255371,99.741669 2650.797119,70.446350 
	C2653.662598,59.315830 2656.340088,48.135242 2658.950684,36.941917 
	C2659.538330,34.422455 2660.162842,32.930485 2663.283203,32.934811 
	C2729.274902,33.026318 2795.266357,33.009533 2861.258057,33.026299 
	C2861.742188,33.026421 2862.226074,33.197685 2863.537598,33.445221 
	C2794.658203,219.665970 2725.845703,405.705719 2656.939209,592.000000 
	C2655.262939,592.000000 2653.795166,592.000000 2652.327393,592.000000 
	C2600.500488,592.000000 2548.673828,592.000793 2496.846924,591.997742 
	C2494.102295,591.997620 2491.926270,592.331299 2490.560059,588.434875 
	C2484.039062,569.835938 2476.906738,551.451843 2470.042725,532.972595 
	C2459.128174,503.589386 2448.200195,474.211090 2437.382324,444.792328 
	C2429.742676,424.016541 2422.357178,403.147217 2414.711182,382.373566 
	C2404.721680,355.231842 2394.555908,328.155029 2384.523438,301.029022 
	C2372.809082,269.356689 2361.153564,237.662537 2349.478516,205.975739 
	C2336.853760,171.711548 2324.243408,137.441925 2311.611572,103.180359 
	C2303.171143,80.288368 2294.702881,57.406685 2286.261475,34.515102 
	C2286.158936,34.236938 2286.248535,33.887951 2286.248535,33.286003 
	C2353.625977,33.286003 2421.017578,33.286003 2488.698486,33.286003 
	C2516.924072,143.421661 2545.179688,253.674194 2573.435303,363.926727 
	C2573.897461,364.037079 2574.359619,364.147400 2574.822021,364.257751 
	C2576.527100,358.593933 2578.231934,352.930084 2579.964844,346.843384 
z"/>
<path fill="#FFBF00" opacity="1.000000" stroke="none" 
	d="
M3327.645996,206.176697 
	C3333.096191,216.780304 3342.703125,221.756348 3352.799316,224.803864 
	C3370.742188,230.219955 3389.005127,234.642502 3407.263672,238.930191 
	C3431.786133,244.688873 3455.771484,251.811127 3477.974854,264.008270 
	C3495.044678,273.385223 3510.138428,285.076874 3522.803955,300.110352 
	C3539.414795,319.825745 3549.264404,342.452606 3552.832275,367.660400 
	C3554.878662,382.117126 3556.320801,396.899597 3555.720703,411.439911 
	C3554.514648,440.648987 3547.420410,468.622772 3532.918457,494.319458 
	C3522.266846,513.194641 3508.486572,529.413147 3492.065186,543.688660 
	C3476.133057,557.539124 3458.243652,567.994080 3439.338135,576.820435 
	C3422.291748,584.778748 3404.373535,590.501587 3385.851807,593.911804 
	C3374.162354,596.063965 3362.357666,598.071045 3350.520752,598.823975 
	C3334.139893,599.865906 3317.630859,600.617737 3301.267334,599.762390 
	C3280.109863,598.656677 3258.956787,596.372681 3238.317627,591.076660 
	C3219.212158,586.174255 3199.998047,581.601013 3181.127441,575.903992 
	C3159.697266,569.434204 3139.346924,560.112671 3119.481934,549.792480 
	C3119.061035,549.573730 3118.750000,549.142944 3118.313477,548.742981 
	C3137.254639,499.131012 3156.188477,449.537628 3175.184570,399.780914 
	C3183.267090,406.108826 3190.843750,412.265137 3198.654785,418.108429 
	C3213.934570,429.539368 3230.681641,438.365326 3248.088379,446.135559 
	C3262.385986,452.518066 3277.172363,457.576019 3292.549072,459.519379 
	C3311.389160,461.900391 3330.503418,463.501312 3348.969482,456.096222 
	C3358.762695,452.169067 3365.795410,442.358429 3365.018066,432.823425 
	C3364.435059,425.674347 3366.385742,418.302795 3362.797607,411.422729 
	C3356.720947,399.770905 3346.310303,393.864319 3334.243408,391.133392 
	C3311.633789,386.016357 3288.804932,381.874786 3266.150146,376.947083 
	C3241.386963,371.560699 3218.177490,362.237640 3197.096436,347.999634 
	C3176.738281,334.249786 3160.755859,316.499603 3150.191162,294.310120 
	C3143.327881,279.894989 3138.731445,264.645294 3138.021973,248.505096 
	C3137.563477,238.085007 3136.201172,227.537125 3137.270996,217.257446 
	C3138.796631,202.597626 3141.487549,187.965057 3144.927246,173.619827 
	C3150.524170,150.278351 3161.959961,129.493622 3176.330078,110.487419 
	C3187.564941,95.627617 3201.164551,83.028503 3216.207520,71.874992 
	C3239.160889,54.856262 3264.272949,42.323540 3291.744629,34.846333 
	C3305.633301,31.066189 3319.841553,27.696434 3334.116699,26.288790 
	C3353.015625,24.425249 3372.163818,23.568190 3391.127686,24.295635 
	C3411.928467,25.093552 3432.538086,28.788404 3452.715088,34.320965 
	C3474.822510,40.382854 3495.993408,48.809025 3516.163086,59.678993 
	C3523.560303,63.665665 3530.692383,68.145302 3538.509521,72.730995 
	C3521.973877,116.939880 3505.480469,161.035446 3489.308594,204.271835 
	C3471.954346,194.203049 3455.361328,183.702179 3437.972656,174.745865 
	C3422.267578,166.656860 3405.420410,161.114395 3387.683838,159.012314 
	C3381.017334,158.222229 3374.336182,157.328201 3367.639404,157.073410 
	C3355.570068,156.614227 3344.353516,159.901184 3334.728027,167.156677 
	C3326.632324,173.258957 3321.208496,184.888504 3325.221680,199.469131 
	C3325.819824,201.643143 3326.656494,203.751434 3327.645996,206.176697 
z"/>
<path fill="#FFBF00" opacity="1.000000" stroke="none" 
	d="
M58.855598,57.027481 
	C48.277912,53.319260 38.099499,49.643707 27.924623,45.958405 
	C23.049822,44.192768 20.945976,40.548157 22.034849,35.524448 
	C23.128139,30.480349 27.953423,31.384794 30.886913,31.300697 
	C37.367840,31.114910 43.876812,32.543034 50.396946,32.954617 
	C63.242004,33.765457 76.134346,33.963379 88.950500,35.070347 
	C126.437630,38.308220 163.991531,36.737320 201.515076,36.879890 
	C216.866806,36.938225 232.227692,35.745186 247.576675,34.968422 
	C257.772156,34.452454 267.950928,33.612152 278.143860,33.034245 
	C280.930481,32.876251 283.849030,32.687744 286.514740,33.321800 
	C290.252838,34.210918 291.618073,37.077412 291.015808,40.914299 
	C290.466309,44.415215 288.070099,46.037220 285.042053,46.934834 
	C271.408752,50.976223 257.700958,54.776363 244.133636,59.026241 
	C237.212540,61.194229 230.609268,64.363136 223.719070,66.647453 
	C217.064972,68.853477 216.056061,74.127251 216.046921,79.807747 
	C215.966202,129.970383 215.870758,180.133636 216.034561,230.295883 
	C216.217728,286.386505 216.317001,342.481567 217.160690,398.564056 
	C217.532608,423.287659 222.900574,447.203430 232.915237,470.038483 
	C240.287796,486.849091 250.272247,501.784271 263.234650,514.630310 
	C280.738312,531.976746 301.936188,542.713745 325.674377,549.096130 
	C347.387512,554.934021 369.504730,554.905518 391.502655,553.734985 
	C414.115875,552.531738 436.173584,547.337708 456.588806,536.991272 
	C471.988770,529.186523 485.613312,519.126343 496.970184,505.756531 
	C515.739624,483.660400 526.498413,458.083405 530.795227,429.860565 
	C533.285095,413.506470 534.761719,396.835571 534.820923,380.300537 
	C535.180115,279.976288 535.000305,179.650101 534.999451,79.324570 
	C534.999390,72.335365 533.437256,70.253273 526.715149,67.928635 
	C509.461395,61.961910 492.217133,55.967617 474.978058,49.958492 
	C470.197815,48.292221 466.202759,42.860146 467.025726,39.277931 
	C467.891479,35.509518 473.746216,33.110359 479.640167,34.016891 
	C484.315521,34.736004 488.992432,35.746071 493.695892,35.929501 
	C514.876770,36.755543 536.063599,37.576721 557.255920,37.905605 
	C569.341370,38.093163 581.447144,37.463249 593.533630,36.959686 
	C605.395508,36.465485 617.256531,35.825920 629.095642,34.949707 
	C639.045044,34.213356 648.948547,32.828403 658.901733,32.186134 
	C662.352173,31.963488 666.516785,33.543797 666.665771,37.344357 
	C666.774109,40.106361 664.694763,44.541122 662.404846,45.557461 
	C645.120422,53.228680 627.543152,60.240189 610.054871,67.451721 
	C607.964355,68.313751 605.891724,69.235474 603.754883,69.965744 
	C595.807861,72.681679 593.003418,76.476753 593.002747,84.780289 
	C592.997681,147.442093 593.122986,210.104202 592.958008,272.765564 
	C592.842773,316.523926 593.021790,360.301605 591.730896,404.031128 
	C591.005310,428.608368 585.421326,452.612488 575.882385,475.505981 
	C565.523499,500.367249 550.547058,522.008850 530.464600,539.934082 
	C512.466675,555.998657 491.808777,567.816833 469.554169,577.050781 
	C449.404510,585.411316 428.396851,590.715881 407.098328,594.791870 
	C395.567291,596.998596 383.769867,598.277283 372.036987,598.866028 
	C349.540466,599.994995 326.981293,601.256653 304.492157,600.695984 
	C287.736023,600.278198 270.897064,597.908325 254.375015,594.880127 
	C238.348694,591.942749 222.366104,587.991150 206.925598,582.811646 
	C182.597900,574.651001 160.294022,562.586731 140.722549,545.471802 
	C125.924980,532.531555 114.432472,517.294617 105.661568,500.011963 
	C97.616547,484.159637 92.356125,467.212036 91.102455,449.388885 
	C89.943047,432.905792 89.119759,416.361694 89.089600,399.842743 
	C88.908882,300.850739 88.976723,201.858246 89.043289,102.865982 
	C89.048729,94.771873 89.799103,86.680832 89.961494,78.583519 
	C90.113762,70.990959 87.559525,67.724808 80.544075,65.176369 
	C73.406746,62.583645 66.348946,59.771950 58.855598,57.027481 
z"/>
<path fill="#FFBF00" opacity="1.000000" stroke="none" 
	d="
M898.269531,93.235489 
	C876.808899,109.004181 860.080688,128.419067 846.929382,151.121994 
	C831.889404,177.085434 822.481995,204.990723 816.970337,234.357147 
	C813.641602,252.092865 811.054016,269.882782 810.950256,287.987762 
	C810.897095,297.249756 809.775696,306.529449 810.117432,315.764893 
	C810.801758,334.257690 812.643616,352.624359 815.744629,370.946014 
	C819.716736,394.414093 826.293091,417.038239 835.148743,438.985748 
	C843.508728,459.704803 854.841919,478.812469 868.787109,496.370361 
	C880.213440,510.756897 893.437439,523.091064 908.695251,533.288940 
	C928.513184,546.534607 950.125610,554.932922 973.647949,559.213928 
	C990.580872,562.295776 1007.581665,562.879028 1024.478149,561.746826 
	C1049.631348,560.061462 1074.458496,555.834900 1098.428467,547.312561 
	C1120.769287,539.369507 1141.283325,528.439514 1158.334961,511.846130 
	C1170.291748,500.210724 1178.228638,485.889130 1184.019287,470.245941 
	C1188.671631,457.677765 1193.854614,445.298523 1199.102783,432.963348 
	C1200.560181,429.537933 1202.780884,426.298187 1205.242676,423.491943 
	C1206.691772,421.840149 1209.392944,420.193024 1211.370361,420.367218 
	C1214.018188,420.600494 1214.859009,422.920776 1215.403809,426.197693 
	C1217.308472,437.654358 1213.944458,448.218231 1211.491333,458.980743 
	C1205.372925,485.823242 1199.169189,512.646362 1192.975586,539.471680 
	C1191.955322,543.890808 1190.949951,548.321167 1189.694946,552.676392 
	C1187.682495,559.660339 1181.034546,561.212585 1175.596558,563.618835 
	C1153.067993,573.587524 1129.693115,581.206848 1105.665405,586.583130 
	C1092.202271,589.595398 1078.567749,592.017944 1064.898682,593.887878 
	C1049.009766,596.061462 1033.033447,598.024231 1017.031738,598.847046 
	C992.376099,600.114807 967.616577,601.597290 942.994568,600.624207 
	C920.862549,599.749512 898.793091,596.125183 876.810669,592.925781 
	C849.577332,588.962036 823.583130,580.539551 798.632202,568.939514 
	C779.105774,559.861450 761.020813,548.609436 744.247375,534.969543 
	C722.844055,517.564636 705.880310,496.694366 691.964355,473.056580 
	C680.194946,453.064850 671.938110,431.639099 666.309631,409.283905 
	C663.262817,397.182343 661.107544,384.688690 660.208679,372.252075 
	C658.753906,352.124512 657.850525,331.881470 658.265442,311.719116 
	C658.580811,296.397186 661.331299,281.127441 662.953979,265.829803 
	C665.415588,242.622589 671.529175,220.255264 679.369751,198.411560 
	C688.742310,172.300079 701.446899,147.859039 719.217468,126.343178 
	C726.019897,118.107071 732.827637,109.795784 740.398132,102.290634 
	C754.706909,88.105263 770.776917,76.073547 788.243774,65.968056 
	C808.658264,54.157207 829.902771,44.050999 852.687256,37.881805 
	C871.110779,32.893402 889.777222,28.591116 908.553833,25.185457 
	C923.325256,22.506235 938.394043,21.136993 953.394104,20.131882 
	C971.710449,18.904558 990.098022,18.036072 1008.445435,18.184479 
	C1025.399902,18.321617 1042.405396,19.396605 1059.274780,21.150585 
	C1085.806152,23.909157 1112.163818,28.138111 1137.962158,35.084358 
	C1152.626221,39.032669 1167.072998,43.794102 1181.590210,48.277767 
	C1185.316895,49.428745 1186.964966,51.577824 1187.223267,56.092403 
	C1187.809814,66.337845 1189.642334,76.508759 1190.868896,86.721916 
	C1191.669556,93.388824 1192.231079,100.084290 1193.014526,106.753448 
	C1194.272339,117.460693 1195.556519,128.165802 1196.956665,138.855148 
	C1198.566528,151.146347 1200.481201,163.399658 1201.944580,175.707321 
	C1202.918457,183.896713 1203.743652,192.150055 1203.792725,200.379791 
	C1203.811646,203.543640 1202.344604,208.348785 1200.058594,209.543655 
	C1195.711426,211.815781 1191.526978,208.452072 1189.419067,204.629562 
	C1184.905151,196.443909 1180.636230,188.058640 1177.085449,179.418777 
	C1167.563477,156.250031 1158.169556,133.018280 1149.344116,109.578323 
	C1145.234985,98.664291 1137.440308,92.082825 1127.588623,87.246780 
	C1103.638184,75.489952 1078.533203,67.356651 1052.400024,61.747494 
	C1033.898438,57.776337 1015.327271,57.080441 996.798584,58.260422 
	C973.724670,59.729862 951.111694,64.685303 930.195190,75.084106 
	C919.354736,80.473541 909.069031,86.978935 898.269531,93.235489 
z"/>
<path fill="#FFBF00" opacity="1.000000" stroke="none" 
	d="
M2883.000000,40.079063 
	C2883.000000,37.606728 2883.000000,35.624790 2883.000000,33.324051 
	C2947.952148,33.324051 3012.669434,33.324051 3077.693848,33.324051 
	C3077.693848,219.299316 3077.693848,405.329193 3077.693848,591.679626 
	C3013.041992,591.679626 2948.324219,591.679626 2883.000000,591.679626 
	C2883.000000,408.005981 2883.000000,224.287720 2883.000000,40.079063 
z"/>
<path fill="#000000" opacity="1.000000" stroke="none" 
	d="
M1619.300293,360.309509 
	C1613.511230,378.526672 1603.776611,393.485382 1589.188477,405.480499 
	C1572.867676,418.900116 1554.215088,426.420227 1533.476685,428.942993 
	C1522.576172,430.269012 1511.581787,430.824036 1500.274658,431.756500 
	C1500.274658,353.297577 1500.274658,275.927582 1500.274658,197.210175 
	C1511.664429,198.134064 1522.926025,198.935013 1534.163940,199.989105 
	C1546.747314,201.169418 1558.458008,205.165344 1569.724487,210.893341 
	C1586.072266,219.204773 1598.783936,231.222260 1607.978882,246.992081 
	C1617.447266,263.230743 1622.811890,280.794891 1623.943115,299.541809 
	C1624.600830,310.443390 1625.481445,321.435333 1624.752075,332.285156 
	C1624.126709,341.588501 1621.354614,350.747559 1619.300293,360.309509 
z"/>
<path fill="#000000" opacity="1.000000" stroke="none" 
	d="
M2080.281738,305.377960 
	C2087.334961,270.638702 2094.169678,236.277420 2101.004639,201.916122 
	C2101.434814,201.978439 2101.864746,202.040741 2102.294922,202.103058 
	C2114.786621,264.142792 2127.278564,326.182495 2139.868652,388.710693 
	C2113.890869,388.710693 2089.023438,388.710693 2063.750732,388.710693 
	C2069.203613,361.825500 2074.591064,335.290314 2079.947266,308.748840 
	C2080.142090,307.782684 2080.031738,306.754974 2080.281738,305.377960 
z"/>
</svg>