<svg id="svg" version="1.1" xmlns="http://www.w3.org/2000/svg" xmlns:xlink="http://www.w3.org/1999/xlink" width="400" height="135.92000000000002" viewBox="0, 0, 400,135.92000000000002"><g id="svgg"><path id="path0" d="M104.500 0.176 C 100.259 0.474,95.519 1.731,92.042 3.479 C 91.289 3.857,90.576 4.167,90.455 4.167 C 90.148 4.167,86.687 6.476,85.328 7.588 C 81.748 10.517,77.585 16.145,76.209 19.917 C 76.109 20.192,75.679 21.354,75.255 22.500 C 74.034 25.792,72.847 30.842,72.432 34.500 C 72.386 34.912,72.293 35.700,72.227 36.250 C 72.024 37.931,72.097 49.595,72.319 51.167 C 72.863 55.001,73.964 59.090,75.214 61.917 C 75.579 62.742,76.043 63.833,76.246 64.341 C 76.681 65.430,78.908 68.866,79.644 69.583 C 79.927 69.858,80.159 70.160,80.162 70.253 C 80.188 71.208,86.626 76.321,89.333 77.538 C 95.715 80.405,99.740 81.250,107.000 81.249 C 115.297 81.248,122.186 79.961,128.161 77.296 C 128.571 77.114,129.066 76.903,129.261 76.829 C 129.794 76.627,131.899 75.317,132.036 75.103 C 132.191 74.862,132.363 74.055,133.248 69.417 C 133.650 67.308,134.286 64.088,134.661 62.261 C 135.685 57.265,135.575 55.431,134.280 55.928 C 133.772 56.123,132.360 59.433,132.082 61.083 C 130.252 71.940,116.340 78.722,104.921 74.324 C 99.808 72.356,94.544 65.871,92.280 58.750 C 88.803 47.816,88.421 35.215,91.260 25.083 C 91.594 23.892,91.934 22.640,92.016 22.301 C 92.351 20.910,93.919 17.568,95.129 15.667 C 96.576 13.391,97.012 12.834,98.494 11.364 C 105.151 4.760,113.166 3.802,122.980 8.437 C 126.935 10.306,126.925 10.287,130.281 21.162 C 131.945 26.553,133.572 28.568,133.932 25.684 C 134.041 24.814,133.956 23.872,133.184 17.333 C 132.832 14.359,132.425 10.275,132.113 6.609 L 131.917 4.302 130.500 3.728 C 126.607 2.151,123.117 1.094,120.384 0.664 C 119.760 0.566,119.063 0.449,118.833 0.403 C 116.984 0.036,108.424 -0.100,104.500 0.176 M376.500 0.695 C 362.171 2.018,352.007 14.631,352.552 30.413 C 352.933 41.459,359.153 48.699,369.940 50.653 C 376.431 51.829,378.803 53.772,378.444 57.618 C 377.799 64.523,366.462 62.453,357.868 53.861 C 356.963 52.956,356.782 53.029,356.421 54.445 C 356.101 55.705,355.593 57.357,353.739 63.167 C 353.052 65.321,352.423 67.346,352.343 67.667 C 352.262 67.987,351.814 69.487,351.348 71.000 C 350.881 72.512,350.500 73.804,350.500 73.870 C 350.500 74.175,355.055 76.781,356.751 77.446 C 365.600 80.915,373.373 82.013,379.417 80.648 C 390.249 78.200,397.661 70.491,399.669 59.583 C 400.285 56.236,400.103 48.615,399.336 45.648 C 397.650 39.123,392.068 33.128,386.162 31.496 C 379.695 29.710,376.604 28.557,375.441 27.500 C 373.363 25.611,373.426 22.175,375.572 20.417 C 378.677 17.873,384.999 19.840,391.541 25.386 C 392.200 25.945,392.523 26.128,392.579 25.974 C 392.693 25.657,394.563 19.666,395.345 17.111 C 395.705 15.934,396.000 14.882,396.000 14.773 C 396.000 14.665,396.489 13.042,397.087 11.168 C 398.357 7.185,398.415 7.642,396.466 6.205 C 394.800 4.976,394.122 4.584,391.667 3.427 C 389.248 2.287,387.676 1.773,384.250 1.001 C 382.247 0.550,379.318 0.435,376.500 0.695 M0.375 1.827 C 0.169 1.916,-0.000 2.132,-0.000 2.307 C -0.000 3.003,0.228 3.700,0.482 3.779 C 0.939 3.923,0.941 3.924,6.191 6.398 C 6.709 6.642,7.234 6.964,7.358 7.113 C 7.544 7.338,7.600 11.952,7.677 33.817 C 7.782 63.369,7.743 62.464,9.076 66.174 C 12.940 76.925,24.085 82.527,38.833 81.132 C 49.823 80.092,57.310 75.442,61.406 67.112 C 62.784 64.310,63.760 61.363,64.010 59.250 C 64.096 58.517,64.249 57.504,64.349 57.000 C 64.523 56.120,64.772 34.077,64.816 15.715 C 64.833 8.493,64.847 8.167,65.155 7.881 C 65.333 7.718,66.551 7.029,67.864 6.351 C 69.176 5.673,70.751 4.830,71.362 4.476 C 71.974 4.123,72.543 3.833,72.626 3.833 C 72.848 3.833,73.172 3.155,73.213 2.600 C 73.266 1.907,72.683 1.776,70.500 1.993 C 64.782 2.560,58.170 2.691,53.955 2.321 C 51.045 2.065,50.333 2.159,50.334 2.799 C 50.335 3.855,50.749 4.160,54.321 5.741 C 56.240 6.590,57.759 7.361,57.851 7.532 C 58.165 8.120,57.938 55.473,57.612 57.333 C 55.586 68.884,49.778 74.496,39.833 74.511 C 30.679 74.525,25.103 69.137,22.818 58.071 C 22.345 55.780,22.194 48.263,22.179 26.148 C 22.166 8.210,22.191 7.209,22.650 7.038 C 22.797 6.983,23.254 6.735,23.667 6.486 C 24.411 6.038,28.432 4.386,29.795 3.968 C 30.396 3.784,30.533 3.659,30.669 3.167 C 31.043 1.822,30.706 1.745,26.117 2.117 C 21.024 2.530,10.541 2.527,6.250 2.112 C 1.991 1.700,0.802 1.643,0.375 1.827 M145.069 1.986 C 145.031 2.024,145.000 19.593,145.000 41.028 L 145.000 80.000 160.125 79.997 C 178.641 79.993,178.357 80.019,184.538 77.775 C 190.579 75.582,197.769 68.151,200.142 61.648 C 200.322 61.154,200.778 59.925,201.154 58.917 C 205.941 46.098,204.253 25.967,197.583 16.308 C 197.181 15.726,196.515 14.754,196.104 14.148 C 195.069 12.622,190.298 8.000,189.758 8.000 C 189.706 8.000,189.037 7.588,188.272 7.083 C 186.708 6.053,183.717 4.602,182.433 4.249 C 181.966 4.121,180.863 3.794,179.982 3.523 C 179.101 3.252,177.601 2.879,176.649 2.694 C 175.696 2.508,174.654 2.304,174.333 2.239 C 173.715 2.114,145.188 1.868,145.069 1.986 M233.659 1.958 L 222.902 2.002 221.634 6.626 C 220.937 9.169,220.238 11.813,220.080 12.500 C 219.922 13.188,219.584 14.500,219.328 15.417 C 217.143 23.240,216.642 25.076,216.395 26.167 C 216.239 26.854,215.869 28.317,215.572 29.417 C 214.744 32.489,212.860 39.317,212.582 40.250 C 212.446 40.708,212.262 41.472,212.174 41.946 C 212.086 42.421,211.230 45.646,210.272 49.113 C 209.314 52.580,208.438 55.829,208.324 56.333 C 208.211 56.837,207.832 58.300,207.482 59.583 C 206.455 63.342,204.694 69.679,204.420 70.598 C 204.280 71.064,204.167 71.589,204.167 71.765 C 204.167 71.940,204.017 72.608,203.832 73.250 C 202.788 76.884,202.000 79.724,202.000 79.854 C 202.000 79.940,206.977 79.984,213.780 79.959 L 225.560 79.917 226.024 77.417 C 226.279 76.042,226.690 73.848,226.936 72.542 L 227.385 70.167 235.509 70.167 L 243.633 70.167 243.883 71.375 C 244.020 72.040,244.292 73.371,244.487 74.333 C 244.683 75.296,245.050 76.946,245.304 78.000 L 245.764 79.917 257.561 79.959 C 268.744 80.000,269.352 79.987,269.273 79.709 C 269.167 79.339,268.171 75.675,267.494 73.167 C 267.209 72.112,266.915 71.025,266.841 70.750 C 266.766 70.475,266.125 68.262,265.417 65.833 C 264.709 63.404,264.032 60.967,263.912 60.417 C 263.793 59.867,262.970 56.904,262.082 53.833 C 261.195 50.762,260.219 47.275,259.915 46.083 C 259.611 44.892,258.786 41.929,258.082 39.500 C 257.378 37.071,256.617 34.371,256.390 33.500 C 255.736 30.992,255.119 28.787,253.506 23.204 C 252.678 20.337,252.000 17.874,252.000 17.730 C 252.000 17.587,251.581 16.033,251.070 14.276 C 248.639 5.933,248.007 3.688,247.902 3.026 C 247.727 1.935,247.536 1.827,245.863 1.874 C 245.068 1.896,239.576 1.934,233.659 1.958 M258.583 2.000 C 257.300 2.046,256.263 2.121,256.278 2.167 C 256.293 2.212,256.357 2.475,256.419 2.750 C 256.562 3.384,257.333 5.942,258.757 10.500 C 259.373 12.471,260.080 14.871,260.329 15.833 C 260.579 16.796,261.479 19.796,262.331 22.500 C 263.182 25.204,263.976 27.829,264.095 28.333 C 264.390 29.586,264.485 29.907,266.193 35.417 C 267.017 38.075,267.794 40.625,267.919 41.083 C 268.354 42.680,269.476 46.446,270.798 50.750 C 271.530 53.133,272.210 55.426,272.309 55.844 C 272.465 56.503,274.462 63.046,275.740 67.083 C 275.972 67.817,276.163 68.526,276.164 68.660 C 276.166 68.793,276.931 71.400,277.866 74.451 L 279.566 80.000 288.997 80.000 L 298.428 80.000 298.979 78.208 C 299.637 76.068,299.807 75.464,300.002 74.583 C 300.084 74.217,300.800 71.854,301.593 69.333 C 303.227 64.145,303.155 64.385,303.819 61.917 C 304.090 60.908,304.868 58.321,305.548 56.167 C 306.228 54.012,307.065 51.275,307.407 50.083 C 308.103 47.660,309.315 43.637,310.445 40.000 C 310.858 38.671,311.386 36.908,311.617 36.083 C 312.073 34.462,313.864 28.526,315.181 24.272 C 315.631 22.817,316.000 21.536,316.000 21.424 C 316.000 21.313,316.719 18.903,317.599 16.069 C 319.172 11.000,319.423 10.156,320.503 6.333 C 320.801 5.279,321.215 3.892,321.424 3.250 L 321.803 2.083 319.443 2.000 C 318.145 1.954,312.921 1.937,307.833 1.961 L 298.583 2.006 297.368 7.711 C 296.699 10.849,296.155 13.548,296.159 13.708 C 296.163 13.868,295.638 16.418,294.993 19.374 C 293.246 27.369,292.674 30.087,292.387 31.750 C 292.158 33.080,289.004 47.863,288.931 47.952 C 288.888 48.004,288.059 43.933,287.838 42.583 C 287.733 41.942,286.835 37.629,285.843 33.000 C 284.851 28.371,283.922 23.908,283.780 23.083 C 283.637 22.258,283.260 20.383,282.941 18.917 C 281.690 13.148,280.015 5.168,279.732 3.625 C 279.568 2.731,279.355 1.996,279.259 1.992 C 277.926 1.932,260.298 1.939,258.583 2.000 M334.792 1.958 L 323.833 2.002 323.833 41.001 L 323.833 80.000 334.917 80.000 L 346.000 80.000 346.000 40.917 C 346.000 19.421,345.944 1.852,345.875 1.874 C 345.806 1.896,340.819 1.934,334.792 1.958 M171.784 25.423 C 173.351 25.817,175.738 27.101,176.694 28.065 C 178.346 29.732,180.160 32.579,180.169 33.521 C 180.170 33.647,180.322 34.231,180.506 34.819 C 181.862 39.145,181.627 45.541,179.946 50.083 C 179.174 52.168,176.480 55.020,174.298 56.061 C 171.678 57.312,167.387 57.871,167.431 56.957 C 167.438 56.797,167.457 49.531,167.472 40.810 L 167.500 24.952 169.159 25.067 C 170.071 25.129,171.253 25.290,171.784 25.423 M236.162 30.000 C 236.250 30.779,236.358 31.604,236.402 31.833 C 236.446 32.063,236.822 34.275,237.238 36.750 C 237.653 39.225,238.370 43.455,238.830 46.151 C 239.290 48.846,239.667 51.115,239.667 51.192 C 239.667 51.270,237.784 51.333,235.482 51.333 C 232.181 51.333,231.315 51.289,231.378 51.123 C 231.423 51.007,231.584 50.051,231.738 48.998 C 232.486 43.855,235.172 27.541,235.443 26.500 C 235.567 26.021,235.889 27.590,236.162 30.000 M5.500 90.583 L 5.500 92.000 202.399 92.000 L 399.299 92.000 399.268 90.625 L 399.236 89.250 202.368 89.208 L 5.500 89.167 5.500 90.583 " stroke="none" fill="#dcac04" fill-rule="evenodd"></path><path id="path1" d="M386.333 100.810 L 385.250 101.083 384.677 102.833 C 384.361 103.796,383.398 106.571,382.535 109.000 C 381.673 111.429,380.786 113.979,380.564 114.667 C 378.140 122.185,377.889 122.738,376.809 122.921 C 376.187 123.026,376.151 123.064,376.199 123.558 L 376.250 124.083 379.375 124.129 L 382.500 124.174 382.500 123.504 L 382.500 122.833 381.514 122.833 C 380.120 122.833,380.000 122.760,380.000 121.913 C 380.000 121.278,380.987 117.520,381.476 116.292 L 381.658 115.833 384.826 115.833 L 387.994 115.833 388.098 116.292 C 388.156 116.544,388.577 118.048,389.035 119.635 C 389.957 122.827,389.963 122.701,388.868 122.826 C 388.100 122.915,388.082 122.930,388.032 123.542 L 387.980 124.167 391.407 124.167 L 394.833 124.167 394.833 123.591 C 394.833 123.057,394.788 123.007,394.208 122.902 C 393.865 122.840,393.460 122.726,393.309 122.648 C 393.015 122.497,392.000 120.227,392.000 119.720 C 391.999 119.553,391.409 117.504,390.689 115.167 C 387.671 105.382,387.076 102.887,387.453 101.604 C 387.760 100.561,387.644 100.479,386.333 100.810 M254.093 100.890 L 253.436 101.088 252.771 103.086 C 252.405 104.184,251.219 107.603,250.136 110.683 C 249.053 113.762,248.167 116.369,248.167 116.475 C 248.167 116.788,246.187 122.192,245.982 122.439 C 245.878 122.563,245.503 122.752,245.147 122.859 C 244.562 123.034,244.500 123.107,244.500 123.613 L 244.500 124.174 247.625 124.129 L 250.750 124.083 250.750 123.500 L 250.750 122.917 249.673 122.866 C 247.877 122.782,247.805 122.384,248.917 118.667 C 249.869 115.480,249.361 115.833,252.996 115.833 L 256.106 115.833 257.055 119.042 C 258.221 122.989,258.222 122.829,257.028 122.836 C 256.370 122.840,256.133 123.058,256.195 123.601 L 256.250 124.083 259.625 124.128 L 263.000 124.174 263.000 123.594 C 263.000 123.056,262.956 123.007,262.375 122.903 C 261.358 122.721,260.655 121.670,260.153 119.583 C 260.043 119.125,259.216 116.313,258.317 113.333 C 257.417 110.354,256.523 107.279,256.329 106.500 C 256.136 105.721,255.870 104.653,255.739 104.128 C 255.436 102.917,255.437 102.220,255.743 101.354 L 255.985 100.667 255.368 100.679 C 255.028 100.687,254.454 100.781,254.093 100.890 M119.311 101.073 C 115.510 101.907,113.598 106.579,115.488 110.416 C 116.177 111.815,116.774 112.320,119.224 113.575 C 123.251 115.639,124.168 116.590,124.166 118.703 C 124.161 123.243,117.688 125.087,115.583 121.148 C 114.292 118.730,113.921 119.148,114.355 122.533 C 114.534 123.924,114.568 124.010,114.980 124.093 C 115.220 124.142,115.867 124.310,116.417 124.466 C 122.915 126.312,127.916 121.360,125.964 115.012 C 125.477 113.425,124.472 112.535,121.350 110.920 C 118.594 109.495,117.804 108.922,117.342 108.018 C 115.198 103.815,121.312 100.027,123.914 103.945 C 124.667 105.079,124.783 105.061,124.917 103.792 C 125.142 101.658,125.037 101.317,124.083 101.067 C 123.049 100.795,120.562 100.799,119.311 101.073 M187.507 101.109 C 178.448 103.071,177.618 121.663,186.468 124.370 C 193.470 126.512,199.384 121.125,199.408 112.583 C 199.432 103.954,194.836 99.523,187.507 101.109 M235.167 101.080 C 226.181 102.756,223.117 118.799,230.889 123.473 C 234.353 125.556,243.004 124.880,243.363 122.499 C 243.797 119.609,243.182 117.936,242.446 120.008 C 241.661 122.217,238.603 123.719,236.009 123.169 C 227.957 121.460,227.100 106.764,234.830 102.949 C 237.265 101.748,240.823 102.464,241.698 104.332 C 242.319 105.655,242.768 105.516,242.908 103.958 C 242.968 103.294,243.055 102.553,243.101 102.313 C 243.309 101.216,238.472 100.464,235.167 101.080 M314.372 101.096 C 309.343 102.197,306.067 109.390,307.406 116.391 C 308.512 122.170,311.224 124.731,316.250 124.743 C 321.162 124.755,324.309 121.977,325.775 116.333 C 326.655 112.943,326.123 107.557,324.682 105.280 C 324.497 104.988,324.200 104.484,324.020 104.159 C 322.568 101.525,318.422 100.208,314.372 101.096 M8.000 101.979 C 8.000 102.725,8.160 102.833,9.258 102.833 C 9.836 102.833,10.028 102.908,10.181 103.194 C 10.477 103.747,10.694 108.406,10.579 111.750 C 10.243 121.489,11.651 124.343,17.000 124.771 C 20.499 125.051,22.978 123.837,24.233 121.230 C 25.392 118.821,25.384 118.894,25.459 110.549 C 25.534 102.210,25.417 102.992,26.625 102.749 C 27.125 102.648,27.167 102.590,27.167 101.987 L 27.167 101.333 24.333 101.333 L 21.500 101.333 21.500 101.979 C 21.500 102.674,21.786 102.833,23.029 102.833 C 24.032 102.833,24.085 103.236,24.072 110.750 C 24.063 116.567,24.024 117.555,23.768 118.500 C 22.111 124.626,14.869 124.685,13.478 118.583 C 13.242 117.550,13.127 103.152,13.352 102.926 C 13.409 102.869,13.844 102.777,14.319 102.721 L 15.184 102.618 15.134 102.017 L 15.083 101.417 11.542 101.372 L 8.000 101.327 8.000 101.979 M29.000 101.982 C 29.000 102.686,29.176 102.833,30.014 102.833 C 31.437 102.833,31.498 103.275,31.499 113.592 C 31.500 123.066,31.522 122.833,30.647 122.833 C 29.871 122.833,29.667 122.994,29.667 123.601 L 29.667 124.167 32.510 124.167 L 35.353 124.167 35.302 123.542 C 35.253 122.959,35.211 122.914,34.667 122.872 C 32.826 122.730,32.926 123.240,32.867 113.667 C 32.836 108.537,32.876 105.645,32.977 105.751 C 33.220 106.005,34.941 108.464,35.634 109.548 C 35.973 110.079,36.654 111.091,37.149 111.798 C 37.643 112.505,39.133 114.696,40.460 116.667 C 41.788 118.638,42.926 120.287,42.989 120.333 C 43.155 120.453,44.167 121.956,44.167 122.083 C 44.167 122.486,46.027 124.667,46.370 124.667 C 46.442 124.667,46.500 119.867,46.500 114.000 C 46.500 102.071,46.439 102.667,47.667 102.667 C 48.139 102.667,48.167 102.630,48.167 102.000 L 48.167 101.333 45.417 101.333 L 42.667 101.333 42.667 101.997 C 42.667 102.716,42.759 102.776,44.000 102.872 C 44.979 102.947,45.010 103.214,44.960 111.210 L 44.917 118.217 43.112 115.567 C 42.120 114.109,41.027 112.504,40.683 112.000 C 40.339 111.496,39.657 110.483,39.168 109.750 C 38.678 109.017,37.196 106.823,35.875 104.875 L 33.471 101.333 31.236 101.333 L 29.000 101.333 29.000 101.982 M50.667 102.083 L 50.667 102.833 51.671 102.833 C 53.160 102.833,53.075 102.226,53.132 113.195 C 53.188 123.736,53.308 122.663,52.042 122.917 C 51.557 123.015,51.500 123.087,51.500 123.597 L 51.500 124.167 54.917 124.167 L 58.333 124.167 58.333 123.601 C 58.333 122.962,58.138 122.833,57.162 122.833 C 55.949 122.833,56.000 123.287,56.000 112.463 L 56.000 102.833 56.570 102.833 C 57.496 102.833,57.667 102.701,57.667 101.982 L 57.667 101.333 54.167 101.333 L 50.667 101.333 50.667 102.083 M59.532 102.042 C 59.581 102.718,59.610 102.753,60.166 102.805 C 61.307 102.914,61.875 104.172,64.505 112.417 C 64.680 112.967,65.564 115.554,66.469 118.167 C 67.375 120.779,68.243 123.348,68.400 123.875 C 68.972 125.806,69.263 125.442,70.729 120.958 C 74.456 109.560,75.992 104.812,76.258 103.875 L 76.553 102.833 77.360 102.833 L 78.167 102.833 78.167 102.079 L 78.167 101.326 75.208 101.371 L 72.250 101.417 72.194 101.908 C 72.121 102.552,72.513 102.833,73.490 102.836 C 74.658 102.840,74.754 102.957,74.527 104.109 C 74.245 105.543,71.344 114.711,70.270 117.566 L 69.741 118.973 68.861 116.362 C 68.377 114.925,67.824 113.263,67.633 112.667 C 67.291 111.602,66.388 109.072,64.913 105.044 C 64.503 103.923,64.167 102.971,64.167 102.928 C 64.167 102.886,64.560 102.828,65.042 102.800 L 65.917 102.750 65.968 102.042 L 66.019 101.333 62.750 101.333 L 59.481 101.333 59.532 102.042 M79.167 102.083 L 79.167 102.833 80.147 102.833 L 81.127 102.833 81.314 103.574 C 81.440 104.076,81.500 107.296,81.500 113.565 L 81.500 122.815 80.708 122.866 C 79.924 122.916,79.916 122.923,79.865 123.542 L 79.813 124.167 86.879 124.167 L 93.945 124.167 94.237 123.125 C 95.011 120.362,94.755 119.770,93.354 121.080 C 92.079 122.272,90.423 122.692,87.171 122.647 C 84.242 122.606,84.356 122.838,84.343 116.875 L 84.333 112.500 87.551 112.500 C 91.302 112.500,91.298 112.498,91.368 113.833 C 91.414 114.696,91.444 114.753,91.875 114.803 L 92.333 114.855 92.333 111.678 L 92.333 108.500 91.833 108.500 C 91.351 108.500,91.333 108.527,91.333 109.261 C 91.333 110.827,90.913 110.998,87.042 110.999 L 84.333 111.000 84.333 107.090 L 84.333 103.180 84.981 103.005 C 85.702 102.811,89.685 103.031,91.153 103.346 C 91.991 103.526,92.667 104.088,92.667 104.606 C 92.667 104.942,93.444 104.887,93.578 104.542 C 93.640 104.381,93.734 103.594,93.787 102.792 L 93.883 101.333 86.525 101.333 L 79.167 101.333 79.167 102.083 M96.455 101.434 C 95.810 102.079,96.478 102.827,97.704 102.831 C 98.925 102.836,98.882 102.464,98.901 113.218 L 98.917 122.750 98.417 122.796 C 97.280 122.900,97.167 122.971,97.167 123.587 L 97.167 124.167 100.667 124.167 L 104.167 124.167 104.167 123.587 C 104.167 122.962,104.044 122.888,102.834 122.795 C 101.859 122.720,101.769 122.334,101.696 117.892 C 101.624 113.525,101.574 113.676,102.992 113.915 C 103.628 114.023,103.651 114.054,104.755 116.253 C 105.370 117.479,106.244 119.105,106.698 119.866 C 107.152 120.627,107.787 121.737,108.108 122.333 C 109.067 124.110,109.173 124.167,111.509 124.167 L 113.500 124.167 113.500 123.590 C 113.500 123.058,113.448 122.999,112.837 122.834 C 112.100 122.636,111.001 121.335,109.375 118.735 C 108.470 117.289,106.432 113.499,106.526 113.438 C 106.558 113.417,107.094 113.147,107.719 112.837 C 109.861 111.773,110.583 110.448,110.583 107.583 C 110.583 104.633,109.661 103.010,107.334 101.867 L 106.417 101.417 101.497 101.364 C 98.791 101.335,96.522 101.366,96.455 101.434 M128.167 101.982 C 128.167 102.712,128.333 102.833,129.338 102.833 C 130.551 102.833,130.500 102.379,130.500 113.204 L 130.500 122.833 129.930 122.833 C 129.031 122.833,128.833 122.973,128.833 123.605 L 128.833 124.173 132.292 124.128 L 135.750 124.083 135.805 123.601 C 135.873 123.009,135.630 122.839,134.712 122.836 C 133.361 122.831,133.417 123.280,133.417 112.424 L 133.417 102.917 134.292 102.761 L 135.167 102.606 135.167 101.970 L 135.167 101.333 131.667 101.333 L 128.167 101.333 128.167 101.982 M138.251 101.540 C 137.946 102.413,137.500 104.342,137.500 104.788 C 137.500 105.554,137.811 105.485,138.759 104.508 C 139.839 103.395,141.016 103.000,143.258 103.000 L 144.333 103.000 144.332 112.042 C 144.331 117.015,144.283 121.477,144.225 121.958 L 144.120 122.833 142.893 122.833 L 141.667 122.833 141.667 123.503 L 141.667 124.172 145.875 124.128 L 150.083 124.083 150.083 123.500 L 150.083 122.917 148.833 122.833 L 147.583 122.750 147.361 122.083 C 147.118 121.357,146.845 104.308,147.062 103.444 C 147.347 102.306,151.830 103.230,152.677 104.601 C 152.870 104.912,153.152 105.166,153.305 105.164 C 153.958 105.158,153.980 104.963,153.523 103.167 L 153.079 101.417 145.702 101.373 C 139.886 101.339,138.309 101.374,138.251 101.540 M154.500 101.982 C 154.500 102.701,154.671 102.833,155.599 102.833 C 156.064 102.833,156.236 102.935,156.513 103.375 C 157.003 104.152,160.167 110.571,160.167 110.788 C 160.167 110.888,160.523 111.707,160.958 112.607 L 161.750 114.244 161.750 118.497 L 161.750 122.750 161.333 122.797 C 160.262 122.917,160.167 122.981,160.167 123.587 L 160.167 124.167 163.667 124.167 L 167.167 124.167 167.167 123.508 L 167.167 122.849 166.125 122.800 L 165.083 122.750 164.867 122.086 C 164.708 121.600,164.663 120.433,164.700 117.752 L 164.750 114.083 166.375 110.629 C 167.269 108.730,168.000 107.101,168.000 107.011 C 168.000 106.920,168.425 105.947,168.944 104.848 L 169.888 102.850 170.569 102.800 C 171.242 102.751,171.251 102.742,171.301 102.042 L 171.352 101.333 168.510 101.333 L 165.667 101.333 165.667 101.982 C 165.667 102.719,165.828 102.832,166.889 102.836 C 167.974 102.840,168.054 102.959,167.686 104.011 C 167.322 105.048,165.843 108.511,165.404 109.352 C 165.242 109.663,164.861 110.517,164.558 111.250 C 164.254 111.983,164.005 112.463,164.003 112.316 C 164.001 112.169,163.109 110.214,162.020 107.971 C 159.580 102.946,159.558 102.872,160.531 102.802 C 161.248 102.750,161.250 102.748,161.301 102.042 L 161.352 101.333 157.926 101.333 L 154.500 101.333 154.500 101.982 M201.167 102.083 L 201.167 102.833 202.234 102.833 C 203.282 102.833,203.305 102.843,203.518 103.375 C 203.768 103.995,203.947 117.680,203.748 120.950 L 203.635 122.817 202.776 122.867 L 201.917 122.917 201.917 123.500 L 201.917 124.083 205.458 124.128 L 209.000 124.173 209.000 123.511 L 209.000 122.849 207.959 122.800 L 206.918 122.750 206.725 121.917 C 206.608 121.412,206.526 119.391,206.516 116.792 L 206.500 112.500 209.667 112.500 C 213.391 112.500,213.500 112.543,213.500 114.000 C 213.500 114.815,213.511 114.833,214.000 114.833 L 214.500 114.833 214.500 111.667 L 214.500 108.500 214.010 108.500 C 213.552 108.500,213.514 108.551,213.414 109.292 C 213.261 110.435,213.230 110.490,212.591 110.758 C 212.163 110.937,211.290 111.000,209.255 111.000 L 206.500 111.000 206.500 107.096 L 206.500 103.193 207.042 103.014 C 208.768 102.445,214.140 103.319,214.695 104.260 C 215.484 105.599,216.000 104.828,216.000 102.310 L 216.000 101.333 208.583 101.333 L 201.167 101.333 201.167 102.083 M264.000 101.997 C 264.000 102.724,264.096 102.784,265.410 102.872 C 266.503 102.946,266.509 103.007,266.460 113.583 L 266.417 122.750 265.917 122.796 C 264.779 122.900,264.667 122.971,264.667 123.588 L 264.667 124.170 271.781 124.127 L 278.895 124.083 279.194 122.917 C 279.518 121.650,279.594 120.333,279.343 120.333 C 279.257 120.333,278.769 120.699,278.258 121.145 C 276.919 122.317,275.954 122.562,272.631 122.574 C 269.401 122.585,269.512 122.659,269.308 120.388 C 269.044 117.452,269.204 102.927,269.500 102.888 C 271.004 102.691,271.000 102.693,271.000 101.992 L 271.000 101.333 267.500 101.333 L 264.000 101.333 264.000 101.997 M280.365 102.042 L 280.417 102.750 281.495 102.833 L 282.574 102.917 282.774 103.583 C 282.919 104.065,282.978 106.826,282.987 113.533 L 283.000 122.816 282.125 122.866 L 281.250 122.917 281.198 123.542 L 281.147 124.167 284.667 124.167 L 288.187 124.167 288.135 123.542 L 288.083 122.917 287.171 122.833 C 285.762 122.705,285.839 123.302,285.836 112.375 L 285.833 102.833 286.292 102.831 C 287.285 102.826,287.500 102.675,287.500 101.981 L 287.500 101.333 283.907 101.333 L 280.314 101.333 280.365 102.042 M290.833 101.982 C 290.833 102.723,290.995 102.833,292.077 102.833 C 293.177 102.833,293.149 102.577,293.202 113.207 C 293.253 123.357,293.296 122.833,292.417 122.833 C 291.706 122.833,291.500 123.007,291.500 123.604 L 291.500 124.173 295.042 124.128 L 298.583 124.083 298.583 123.500 L 298.583 122.917 297.623 122.867 C 296.078 122.786,296.093 122.841,296.032 117.216 L 295.981 112.500 299.303 112.500 C 303.074 112.500,302.953 112.457,303.032 113.838 C 303.080 114.694,303.111 114.753,303.542 114.803 L 304.000 114.855 304.000 111.678 L 304.000 108.500 303.500 108.500 C 303.017 108.500,303.000 108.527,303.000 109.261 C 303.000 110.827,302.579 110.998,298.708 110.999 L 296.000 111.000 296.000 107.090 L 296.000 103.180 296.641 103.007 C 298.544 102.494,303.526 103.270,304.134 104.173 C 304.602 104.868,305.112 105.112,305.233 104.700 C 305.328 104.378,305.667 101.933,305.667 101.571 C 305.667 101.369,304.564 101.333,298.250 101.333 L 290.833 101.333 290.833 101.982 M328.000 101.997 C 328.000 102.715,328.092 102.776,329.330 102.872 C 330.348 102.951,330.328 102.744,330.331 113.292 L 330.333 122.833 329.792 122.836 C 328.739 122.840,328.477 122.991,328.533 123.563 L 328.583 124.083 332.125 124.128 L 335.667 124.173 335.667 123.604 C 335.667 122.950,335.477 122.833,334.409 122.833 C 333.287 122.833,333.259 122.723,333.196 118.064 L 333.141 114.046 333.529 113.942 C 334.867 113.583,334.878 113.593,336.333 116.499 C 337.067 117.966,338.230 120.071,338.917 121.179 C 339.604 122.286,340.169 123.242,340.172 123.304 C 340.206 123.981,340.794 124.167,342.902 124.167 L 345.000 124.167 345.000 123.590 C 345.000 123.060,344.947 122.998,344.351 122.838 C 343.428 122.589,341.697 120.414,340.162 117.573 C 339.868 117.029,339.216 115.884,338.714 115.030 C 338.211 114.176,337.827 113.456,337.859 113.430 C 337.891 113.404,338.174 113.296,338.488 113.190 C 343.528 111.486,343.364 103.258,338.258 101.681 C 337.232 101.364,336.724 101.333,332.566 101.333 L 328.000 101.333 328.000 101.997 M345.500 101.988 C 345.500 102.626,345.524 102.655,346.125 102.749 C 347.124 102.904,347.563 103.207,347.826 103.923 C 348.099 104.667,348.296 117.757,348.082 120.959 C 347.956 122.850,348.096 122.649,346.708 122.930 C 346.405 122.992,346.333 123.118,346.333 123.591 L 346.333 124.175 349.125 124.129 L 351.917 124.083 351.968 123.547 C 352.025 122.967,351.893 122.890,350.675 122.795 C 349.483 122.702,349.491 122.764,349.540 113.739 L 349.583 105.765 350.667 107.320 C 351.262 108.175,352.050 109.350,352.417 109.930 C 352.783 110.511,353.344 111.345,353.663 111.785 C 354.559 113.019,356.167 115.361,356.167 115.431 C 356.167 115.540,359.182 119.898,359.500 120.250 C 359.666 120.433,360.007 120.958,360.257 121.417 C 361.161 123.071,362.687 124.872,362.896 124.533 C 362.951 124.445,362.999 119.713,363.003 114.018 C 363.010 102.549,362.976 102.907,364.075 102.743 C 364.825 102.630,364.833 102.622,364.833 101.981 L 364.833 101.333 362.103 101.333 L 359.372 101.333 359.298 101.723 C 359.142 102.538,359.414 102.833,360.320 102.833 C 361.133 102.833,361.156 102.847,361.357 103.458 C 361.556 104.061,361.801 118.526,361.609 118.329 C 361.383 118.098,360.053 116.191,359.868 115.833 C 359.749 115.604,359.162 114.742,358.562 113.917 C 357.963 113.092,357.106 111.854,356.658 111.167 C 356.210 110.479,355.072 108.807,354.130 107.450 C 353.188 106.093,352.233 104.668,352.009 104.283 C 351.784 103.898,351.254 103.096,350.831 102.500 L 350.061 101.417 347.781 101.370 L 345.500 101.324 345.500 101.988 M367.167 102.083 L 367.167 102.833 368.230 102.833 L 369.294 102.833 369.480 103.574 C 369.607 104.076,369.667 107.298,369.667 113.574 L 369.667 122.833 368.833 122.833 L 368.000 122.833 368.000 123.500 L 368.000 124.167 371.510 124.167 L 375.020 124.167 374.968 123.542 C 374.919 122.941,374.891 122.915,374.250 122.872 C 372.391 122.748,372.500 123.412,372.500 112.225 L 372.500 102.833 372.958 102.831 C 373.952 102.826,374.167 102.675,374.167 101.981 L 374.167 101.333 370.667 101.333 L 367.167 101.333 367.167 102.083 M191.503 102.690 C 195.438 104.498,197.314 110.106,196.263 116.917 C 194.959 125.362,185.823 125.471,183.741 117.066 C 181.465 107.872,185.702 100.025,191.503 102.690 M318.551 102.805 C 324.832 105.897,325.225 120.135,319.106 122.929 C 314.955 124.824,310.747 120.780,309.989 114.169 C 309.059 106.049,313.410 100.274,318.551 102.805 M104.712 103.200 C 107.303 103.976,108.781 107.856,107.421 110.312 C 106.487 111.998,104.593 112.834,102.042 112.688 L 101.667 112.667 101.667 108.033 C 101.667 104.652,101.721 103.346,101.867 103.200 C 102.125 102.942,103.850 102.942,104.712 103.200 M336.502 103.334 C 340.991 105.624,340.015 112.140,335.115 112.599 C 334.639 112.644,334.006 112.710,333.708 112.746 L 333.167 112.812 333.167 108.106 C 333.167 104.668,333.221 103.346,333.367 103.200 C 333.705 102.862,335.747 102.949,336.502 103.334 M254.679 110.583 C 255.144 112.233,255.562 113.715,255.607 113.875 C 255.683 114.144,255.486 114.167,253.095 114.167 C 251.668 114.167,250.500 114.113,250.500 114.048 C 250.500 113.884,251.927 109.465,252.655 107.373 L 253.250 105.662 253.542 106.623 C 253.703 107.151,254.215 108.933,254.679 110.583 M385.717 107.833 C 386.043 108.979,386.545 110.779,386.832 111.833 C 387.119 112.888,387.384 113.844,387.422 113.958 C 387.474 114.119,386.884 114.167,384.838 114.167 L 382.187 114.167 383.130 111.375 C 383.649 109.840,384.292 107.925,384.559 107.120 C 384.827 106.315,385.063 105.678,385.084 105.703 C 385.106 105.729,385.390 106.688,385.717 107.833 M5.500 134.417 L 5.500 135.833 202.423 135.833 L 399.347 135.833 399.298 134.458 L 399.250 133.083 202.375 133.042 L 5.500 133.000 5.500 134.417 " stroke="none" fill="#042464" fill-rule="evenodd"></path><path id="path2" d="M149.637 1.958 C 152.049 1.984,155.949 1.984,158.303 1.958 C 160.657 1.932,158.683 1.911,153.917 1.911 C 149.150 1.911,147.224 1.932,149.637 1.958 M231.720 1.958 C 234.087 1.984,237.912 1.984,240.220 1.958 C 242.528 1.932,240.592 1.911,235.917 1.911 C 231.242 1.911,229.353 1.932,231.720 1.958 M265.303 1.958 C 267.716 1.984,271.616 1.984,273.970 1.958 C 276.324 1.932,274.350 1.911,269.583 1.911 C 264.817 1.911,262.891 1.932,265.303 1.958 M303.208 1.958 C 305.752 1.984,309.915 1.984,312.458 1.958 C 315.002 1.932,312.921 1.911,307.833 1.911 C 302.746 1.911,300.665 1.932,303.208 1.958 M329.375 1.958 C 332.377 1.984,337.290 1.984,340.292 1.958 C 343.294 1.933,340.837 1.912,334.833 1.912 C 328.829 1.912,326.373 1.933,329.375 1.958 M203.881 42.083 C 203.882 42.542,203.915 42.709,203.953 42.456 C 203.991 42.203,203.990 41.828,203.951 41.623 C 203.911 41.418,203.880 41.625,203.881 42.083 M399.205 90.500 C 399.205 90.821,399.240 90.952,399.282 90.792 C 399.323 90.631,399.323 90.369,399.282 90.208 C 399.240 90.048,399.205 90.179,399.205 90.500 " stroke="none" fill="#a4b034" fill-rule="evenodd"></path><path id="path3" d="M149.637 1.958 C 152.049 1.984,155.949 1.984,158.303 1.958 C 160.657 1.932,158.683 1.911,153.917 1.911 C 149.150 1.911,147.224 1.932,149.637 1.958 M231.720 1.958 C 234.087 1.984,237.912 1.984,240.220 1.958 C 242.528 1.932,240.592 1.911,235.917 1.911 C 231.242 1.911,229.353 1.932,231.720 1.958 M265.303 1.958 C 267.716 1.984,271.616 1.984,273.970 1.958 C 276.324 1.932,274.350 1.911,269.583 1.911 C 264.817 1.911,262.891 1.932,265.303 1.958 M303.208 1.958 C 305.752 1.984,309.915 1.984,312.458 1.958 C 315.002 1.932,312.921 1.911,307.833 1.911 C 302.746 1.911,300.665 1.932,303.208 1.958 M329.375 1.958 C 332.377 1.984,337.290 1.984,340.292 1.958 C 343.294 1.933,340.837 1.912,334.833 1.912 C 328.829 1.912,326.373 1.933,329.375 1.958 M203.881 42.083 C 203.882 42.542,203.915 42.709,203.953 42.456 C 203.991 42.203,203.990 41.828,203.951 41.623 C 203.911 41.418,203.880 41.625,203.881 42.083 M399.205 90.500 C 399.205 90.821,399.240 90.952,399.282 90.792 C 399.323 90.631,399.323 90.369,399.282 90.208 C 399.240 90.048,399.205 90.179,399.205 90.500 " stroke="none" fill="#a4b034" fill-rule="evenodd"></path><path id="path4" d="M149.637 1.958 C 152.049 1.984,155.949 1.984,158.303 1.958 C 160.657 1.932,158.683 1.911,153.917 1.911 C 149.150 1.911,147.224 1.932,149.637 1.958 M231.720 1.958 C 234.087 1.984,237.912 1.984,240.220 1.958 C 242.528 1.932,240.592 1.911,235.917 1.911 C 231.242 1.911,229.353 1.932,231.720 1.958 M265.303 1.958 C 267.716 1.984,271.616 1.984,273.970 1.958 C 276.324 1.932,274.350 1.911,269.583 1.911 C 264.817 1.911,262.891 1.932,265.303 1.958 M303.208 1.958 C 305.752 1.984,309.915 1.984,312.458 1.958 C 315.002 1.932,312.921 1.911,307.833 1.911 C 302.746 1.911,300.665 1.932,303.208 1.958 M329.375 1.958 C 332.377 1.984,337.290 1.984,340.292 1.958 C 343.294 1.933,340.837 1.912,334.833 1.912 C 328.829 1.912,326.373 1.933,329.375 1.958 M203.881 42.083 C 203.882 42.542,203.915 42.709,203.953 42.456 C 203.991 42.203,203.990 41.828,203.951 41.623 C 203.911 41.418,203.880 41.625,203.881 42.083 M399.205 90.500 C 399.205 90.821,399.240 90.952,399.282 90.792 C 399.323 90.631,399.323 90.369,399.282 90.208 C 399.240 90.048,399.205 90.179,399.205 90.500 " stroke="none" fill="#a4b034" fill-rule="evenodd"></path></g></svg>