<?xml version="1.0" standalone="no"?>
<!DOCTYPE svg PUBLIC "-//W3C//DTD SVG 20010904//EN"
 "http://www.w3.org/TR/2001/REC-SVG-20010904/DTD/svg10.dtd">
<svg version="1.0" xmlns="http://www.w3.org/2000/svg"
 width="238.000000pt" height="61.000000pt" viewBox="0 0 238.000000 61.000000"
 preserveAspectRatio="xMidYMid meet">
<metadata>
Created by potrace 1.16, written by Peter Selinger 2001-2019
</metadata>
<g transform="translate(0.000000,61.000000) scale(0.100000,-0.100000)"
fill="#000000" stroke="none">
<path d="M585 601 c-75 -19 -119 -56 -141 -118 -34 -98 -3 -200 75 -240 49
-26 155 -32 223 -13 43 12 43 13 52 65 l6 40 -14 -32 c-30 -66 -138 -86 -197
-36 -41 35 -59 79 -59 148 0 88 37 148 102 165 62 17 116 -4 139 -54 18 -40
19 -41 19 -11 0 44 -10 73 -27 79 -27 11 -147 15 -178 7z"/>
<path d="M22 588 l28 -10 0 -142 c0 -158 6 -177 66 -202 46 -19 148 -18 191 3
62 29 73 60 73 205 l0 127 27 15 c26 13 24 14 -42 12 -56 -1 -64 -3 -42 -10
l27 -10 0 -118 c0 -144 -12 -182 -66 -204 -50 -21 -96 -11 -128 27 -25 29 -26
35 -26 164 l0 133 28 10 c20 6 3 9 -68 9 -71 0 -88 -3 -68 -9z"/>
<path d="M870 411 l0 -191 88 0 c102 0 150 12 191 46 62 52 78 171 33 247 -32
56 -91 80 -209 85 l-103 5 0 -192z m187 57 c48 -45 19 -138 -42 -138 -25 0
-25 1 -25 80 0 76 1 80 22 80 12 0 32 -10 45 -22z"/>
<path d="M1325 588 c-17 -48 -115 -357 -115 -362 0 -3 29 -6 64 -6 60 0 64 1
70 26 6 23 10 25 59 22 45 -3 52 -6 55 -25 3 -21 8 -23 72 -23 l69 0 -59 173
c-32 94 -61 180 -65 190 -6 14 -20 17 -76 17 -47 0 -71 -4 -74 -12z m100 -205
c5 -20 1 -23 -24 -23 l-29 0 10 48 c15 74 20 81 29 37 5 -22 11 -50 14 -62z"/>
<path d="M1532 591 c2 -5 32 -91 68 -191 l65 -181 54 3 54 3 68 185 c38 102
69 186 69 188 0 1 -29 2 -65 2 l-64 0 -9 -34 c-6 -18 -18 -68 -28 -110 -10
-42 -21 -76 -25 -76 -3 0 -9 15 -13 33 -4 17 -16 67 -27 110 l-21 77 -65 0
c-36 0 -63 -4 -61 -9z"/>
<path d="M1930 410 l0 -190 65 0 65 0 0 190 0 190 -65 0 -65 0 0 -190z"/>
<path d="M2171 582 c-47 -25 -74 -76 -67 -127 6 -47 30 -70 89 -86 51 -13 68
-26 60 -45 -7 -19 -56 -18 -94 2 -36 18 -32 20 -53 -30 -19 -46 -16 -52 32
-66 99 -27 190 -2 224 61 40 75 10 137 -79 166 -37 11 -59 24 -61 35 -5 26 40
33 79 14 18 -9 33 -15 34 -14 10 21 25 62 25 72 0 37 -131 49 -189 18z"/>
<path d="M617 163 c320 -2 846 -2 1170 0 323 1 62 2 -582 2 -643 0 -908 -1
-588 -2z"/>
<path d="M49 73 c2 -27 8 -54 13 -60 13 -17 53 -17 66 0 14 17 20 107 7 107
-5 0 -10 -24 -10 -52 0 -50 -2 -53 -25 -53 -23 0 -25 4 -28 53 -2 32 -8 52
-15 52 -8 0 -11 -15 -8 -47z"/>
<path d="M170 116 c0 -2 18 -24 40 -48 22 -23 40 -46 40 -50 0 -5 4 -8 9 -8 5
0 11 25 13 55 2 33 -1 55 -7 55 -6 0 -9 -18 -7 -42 l3 -43 -38 43 c-33 37 -53
51 -53 38z"/>
<path d="M305 60 c0 -52 3 -60 19 -60 15 0 16 3 6 15 -7 8 -11 34 -8 60 2 26
-1 45 -7 45 -6 0 -10 -26 -10 -60z"/>
<path d="M378 60 c20 -47 28 -57 34 -45 6 10 4 20 -6 30 -8 8 -17 28 -21 45
-4 16 -13 30 -20 30 -10 0 -7 -16 13 -60z"/>
<path d="M435 110 c4 -6 11 -8 16 -5 14 9 11 15 -7 15 -8 0 -12 -5 -9 -10z"/>
<path d="M475 60 l0 -60 37 0 c20 0 39 4 42 8 3 5 -8 6 -25 4 -26 -4 -29 -1
-29 21 0 19 6 27 23 30 l22 4 -22 2 c-16 1 -23 7 -23 22 0 17 5 20 25 17 14
-3 25 -1 25 3 0 5 -17 9 -37 9 l-38 0 0 -60z"/>
<path d="M580 105 c7 -8 11 -34 8 -60 -2 -29 1 -45 8 -45 7 0 9 10 6 25 -2 14
0 25 6 25 5 0 17 -11 26 -25 9 -14 21 -25 27 -25 6 0 1 12 -10 26 -18 23 -19
28 -6 41 18 18 18 18 -1 37 -8 9 -29 16 -46 16 -26 0 -29 -2 -18 -15z m55 -20
c0 -11 -8 -21 -17 -23 -14 -3 -18 3 -18 23 0 20 4 26 18 23 9 -2 17 -12 17
-23z"/>
<path d="M692 108 c-20 -20 -14 -37 19 -53 36 -19 33 -40 -4 -40 -15 1 -27 -3
-27 -8 0 -15 53 -2 64 16 9 15 5 23 -24 47 -26 21 -31 30 -20 34 43 14 45 14
25 15 -12 1 -26 -4 -33 -11z"/>
<path d="M769 111 c9 -6 12 -24 10 -60 -3 -30 0 -51 6 -51 6 0 10 27 10 60 0
53 -2 60 -20 60 -15 0 -17 -2 -6 -9z"/>
<path d="M820 111 c0 -5 9 -7 21 -4 20 6 21 3 18 -51 -4 -49 -2 -56 15 -56 15
0 16 3 7 14 -7 8 -11 32 -9 53 3 34 6 38 32 39 21 1 33 -6 47 -30 11 -17 18
-41 16 -54 -2 -12 1 -22 7 -22 18 0 13 63 -6 84 -10 10 -15 22 -13 26 3 4 -27
8 -65 9 -39 0 -70 -3 -70 -8z"/>
<path d="M994 100 c0 -11 1 -20 3 -20 1 0 7 9 13 20 8 15 8 20 -3 20 -7 0 -13
-9 -13 -20z"/>
<path d="M1096 104 c-23 -22 -21 -81 3 -94 29 -15 56 -12 74 8 35 39 11 102
-38 102 -13 0 -31 -7 -39 -16z m69 -18 c22 -33 5 -76 -30 -76 -34 0 -53 39
-37 75 15 32 47 32 67 1z"/>
<path d="M1215 60 c0 -53 2 -60 20 -60 15 0 16 3 7 12 -22 22 -14 46 16 51
l27 4 -28 2 c-39 2 -34 36 6 36 15 -1 27 3 27 7 0 4 -17 8 -37 8 l-38 0 0 -60z"/>
<path d="M1382 104 c-32 -22 -31 -80 2 -95 28 -13 76 -4 76 13 0 9 -3 9 -12 0
-7 -7 -19 -12 -28 -12 -20 0 -50 31 -50 52 0 20 29 45 60 51 l25 4 -25 2 c-14
0 -36 -6 -48 -15z"/>
<path d="M1512 103 c-14 -26 -16 -45 -2 -23 7 11 12 3 22 -33 6 -26 18 -47 25
-47 10 0 8 12 -6 48 -10 26 -20 54 -23 62 -4 12 -7 10 -16 -7z"/>
<path d="M1595 60 l0 -60 38 0 c20 0 37 4 37 8 0 4 -12 8 -27 7 -27 0 -28 2
-28 53 0 28 -4 52 -10 52 -6 0 -10 -27 -10 -60z"/>
<path d="M1689 111 c9 -6 12 -24 10 -60 -3 -30 0 -51 6 -51 6 0 10 27 10 60 0
53 -2 60 -20 60 -15 0 -17 -2 -6 -9z"/>
<path d="M1755 60 c0 -53 2 -60 20 -60 15 0 16 3 7 12 -22 22 -14 46 16 51
l27 4 -28 2 c-39 2 -34 36 6 36 15 -1 27 3 27 7 0 4 -17 8 -37 8 l-38 0 0 -60z"/>
<path d="M1860 100 c-24 -24 -25 -48 -4 -78 19 -28 57 -29 84 -2 24 24 25 48
4 78 -19 28 -57 29 -84 2z m69 -4 c31 -37 -9 -103 -46 -80 -37 23 -24 94 17
94 10 0 23 -6 29 -14z"/>
<path d="M1978 60 c2 -37 8 -60 15 -60 8 0 11 18 9 55 -3 44 -1 55 11 55 22 0
31 -32 13 -46 -14 -10 -14 -14 5 -38 11 -14 25 -26 30 -26 6 0 1 12 -11 27
-14 18 -17 30 -10 37 27 27 5 56 -43 56 -21 0 -22 -4 -19 -60z"/>
<path d="M2085 60 c0 -34 4 -60 10 -60 6 0 9 20 6 48 l-3 47 40 -45 40 -45 3
58 c3 35 0 57 -6 57 -6 0 -9 -18 -7 -42 l3 -43 -36 43 c-20 23 -40 42 -43 42
-4 0 -7 -27 -7 -60z"/>
<path d="M2215 60 c0 -47 3 -60 15 -60 12 0 14 12 12 60 -5 81 -27 81 -27 0z"/>
<path d="M2306 104 c-4 -9 -4 -19 -1 -22 3 -3 5 -1 5 4 1 5 7 -9 15 -30 8 -22
12 -43 9 -48 -3 -4 4 -8 15 -8 20 0 20 0 1 42 -11 24 -20 51 -20 61 0 22 -16
22 -24 1z"/>
<path d="M426 75 c-9 -26 -7 -32 5 -12 6 10 9 21 6 23 -2 3 -7 -2 -11 -11z"/>
<path d="M2286 55 c-9 -26 -7 -32 5 -12 6 10 9 21 6 23 -2 3 -7 -2 -11 -11z"/>
<path d="M1482 35 c-15 -32 -15 -35 1 -35 6 0 12 13 13 30 1 36 0 37 -14 5z"/>
<path d="M176 15 c-3 -9 0 -15 9 -15 9 0 12 6 9 15 -4 8 -7 15 -9 15 -2 0 -5
-7 -9 -15z"/>
<path d="M2265 10 c-3 -5 1 -10 10 -10 9 0 13 5 10 10 -3 6 -8 10 -10 10 -2 0
-7 -4 -10 -10z"/>
</g>
</svg>
